<svg version="1.1" preserveAspectRatio="none" xmlns="http://www.w3.org/2000/svg" width="500" height="500" viewBox="0 0 500 500"><rect width="100%" height="100%" fill="#F1F1F1" fill-opacity="1"/><svg viewBox="95.8568 114.1131 338.101 280.6907" width="333" height="276.4558611184232" x="83.5px" y="111.7721px" xmlns="http://www.w3.org/2000/svg" xmlns:xlink="http://www.w3.org/1999/xlink" preserveAspectRatio="none"><defs></defs><style>.aIptOCySncolors-3 {fill:#03D0C6;fill-opacity:1;}.aIptOCySncolors-4 {fill:#FFC019;fill-opacity:1;}.aIptOCySncolors-5 {fill:#FF5606;fill-opacity:1;}.aIptOCySncolors-6 {fill:#000C9C;fill-opacity:1;}.aIptOCySncolors-7 {fill:#776730;fill-opacity:1;}.companyName {fill:#03D069;fill-opacity:1;}.icon1 {fill:#03D069;fill-opacity:1;}.icon2 {fill:#776730;fill-opacity:1;}.icon3 {fill:#B6B5B5;fill-opacity:1;}.icon3-str {stroke:#B6B5B5;stroke-opacity:1;}.text {fill:#03D069;fill-opacity:1;}</style><g opacity="1" transform="rotate(0 197.2871 114.1131)">
<svg width="135.2404" height="152.6907" x="197.2871" y="114.1131" version="1.1" preserveAspectRatio="none" viewBox="53.244998931884766 47.21099853515625 93.51202392578125 105.5780029296875">
  <g transform="matrix(1 0 0 1 0 0)" class="icon1"><g><path d="M100 47.211L53.245 79.502v10.287H61.5v7h4.104v36.003l6.376-10.255 6.417 10.647V96.789H82.5v-7h7v7h4.104v36.003l6.376-10.255 6.417 10.647V96.789h4.104v-7h7v7h4.104v36.003l6.376-10.255 6.417 10.647V96.789h4.104v-7h8.255V79.501L100 47.211zm-24.604 75.183l-3.376-5.603-3.417 5.495V96.789h6.793v25.605zM79.5 93.789h-15v-4h15v4zm23.896 28.605l-3.376-5.603-3.417 5.495V96.789h6.793v25.605zm4.104-28.605h-15v-4h15v4zm23.896 28.605l-3.376-5.603-3.417 5.495V96.789h6.793v25.605zm4.104-28.605h-15v-4h15v4zm8.255-7h-87.51v-5.713L100 50.856l43.755 30.219v5.714z"></path><path d="M141.5 135.789h-83v7h-5v10h93v-10h-5v-7zm-80 3h77v4h-77v-4zm82 7v4h-87v-4h87z"></path><path d="M93.5 72.289c0 3.584 2.916 6.5 6.5 6.5s6.5-2.916 6.5-6.5-2.916-6.5-6.5-6.5-6.5 2.916-6.5 6.5zm10 0c0 1.93-1.57 3.5-3.5 3.5s-3.5-1.57-3.5-3.5 1.57-3.5 3.5-3.5 3.5 1.57 3.5 3.5z"></path></g></g>
</svg>
</g><g opacity="1" transform="rotate(0 161.5034 372.8038)">
<svg width="206.8079" height="22" x="161.5034" y="372.8038" version="1.1" preserveAspectRatio="none" viewBox="2.56 -29.6 377.64000000000004 40.16">
  <g transform="matrix(1 0 0 1 0 0)" class="text"><path id="id-6izo4zJp16" d="M12.84-10.48L8.20-10.48L8.20 0L2.56 0L2.56-28.24L12.84-28.24Q17.84-28.24 20.38-25.84Q22.92-23.44 22.92-19.32L22.92-19.32Q22.92-15.28 20.30-12.88Q17.68-10.48 12.84-10.48L12.84-10.48ZM12.24-15Q17.20-15 17.20-19.32L17.20-19.32Q17.20-21.44 16.04-22.56Q14.88-23.68 12.24-23.68L12.24-23.68L8.20-23.68L8.20-15L12.24-15Z M34.24-17.92Q35.48-20.04 37.52-21.26Q39.56-22.48 42.08-22.48L42.08-22.48L42.08-16.44L40.44-16.44Q34.24-16.44 34.24-10.68L34.24-10.68L34.24 0L28.60 0L28.60-22.16L34.24-22.16L34.24-17.92Z M55.88-22.44Q58.68-22.44 60.68-21.12Q62.68-19.80 63.52-17.56L63.52-17.56L63.52-22.16L69.12-22.16L69.12 0L63.52 0L63.52-4.64Q62.68-2.40 60.68-1.06Q58.68 0.28 55.88 0.28L55.88 0.28Q53.08 0.28 50.84-1.08Q48.60-2.44 47.34-5.02Q46.08-7.60 46.08-11.08L46.08-11.08Q46.08-14.56 47.34-17.14Q48.60-19.72 50.84-21.08Q53.08-22.44 55.88-22.44L55.88-22.44ZM57.64-17.52Q55-17.52 53.40-15.80Q51.80-14.08 51.80-11.08L51.80-11.08Q51.80-8.08 53.40-6.38Q55-4.68 57.64-4.68L57.64-4.68Q60.20-4.68 61.86-6.42Q63.52-8.16 63.52-11.08L63.52-11.08Q63.52-14.04 61.86-15.78Q60.20-17.52 57.64-17.52L57.64-17.52Z M73.76-22.16L80.04-22.16L86.08-7.12L91.68-22.16L97.88-22.16L84.32 10.56L78.08 10.56L83.08-0.64L73.76-22.16Z M111.20-22.44Q114.00-22.44 116-21.12Q118-19.80 118.84-17.56L118.84-17.56L118.84-22.16L124.44-22.16L124.44 0L118.84 0L118.84-4.64Q118-2.40 116-1.06Q114.00 0.28 111.20 0.28L111.20 0.28Q108.40 0.28 106.16-1.08Q103.92-2.44 102.66-5.02Q101.40-7.60 101.40-11.08L101.40-11.08Q101.40-14.56 102.66-17.14Q103.92-19.72 106.16-21.08Q108.40-22.44 111.20-22.44L111.20-22.44ZM112.96-17.52Q110.32-17.52 108.72-15.80Q107.12-14.08 107.12-11.08L107.12-11.08Q107.12-8.08 108.72-6.38Q110.32-4.68 112.96-4.68L112.96-4.68Q115.52-4.68 117.18-6.42Q118.84-8.16 118.84-11.08L118.84-11.08Q118.84-14.04 117.18-15.78Q115.52-17.52 112.96-17.52L112.96-17.52Z M139.20-22.44Q143.24-22.44 145.68-20.40Q148.12-18.36 148.72-14.96L148.72-14.96L143.44-14.96Q143.12-16.56 142-17.52Q140.88-18.48 139.08-18.48L139.08-18.48Q137.64-18.48 136.84-17.80Q136.04-17.12 136.04-15.96L136.04-15.96Q136.04-15.04 136.68-14.48Q137.32-13.92 138.28-13.60Q139.24-13.28 141.04-12.84L141.04-12.84Q143.56-12.28 145.14-11.66Q146.72-11.04 147.86-9.70Q149-8.36 149-6.08L149-6.08Q149-3.24 146.78-1.48Q144.56 0.28 140.80 0.28L140.80 0.28Q136.48 0.28 133.88-1.66Q131.28-3.60 130.72-7.20L130.72-7.20L136.12-7.20Q136.32-5.56 137.56-4.62Q138.80-3.68 140.80-3.68L140.80-3.68Q142.24-3.68 143-4.38Q143.76-5.08 143.76-6.20L143.76-6.20Q143.76-7.16 143.10-7.76Q142.44-8.36 141.46-8.68Q140.48-9 138.68-9.44L138.68-9.44Q136.20-10 134.66-10.58Q133.12-11.16 132.02-12.44Q130.92-13.72 130.92-15.96L130.92-15.96Q130.92-18.84 133.12-20.64Q135.32-22.44 139.20-22.44L139.20-22.44Z M181.68-14.56Q184.24-14.04 185.78-12.14Q187.32-10.24 187.32-7.68L187.32-7.68Q187.32-4.12 184.94-2.06Q182.56 0 178.04 0L178.04 0L165.92 0L165.92-28.24L177.80-28.24Q182.08-28.24 184.38-26.36Q186.68-24.48 186.68-21.08L186.68-21.08Q186.68-18.44 185.30-16.76Q183.92-15.08 181.68-14.56L181.68-14.56ZM171.56-23.72L171.56-16.40L176.64-16.40Q178.76-16.40 179.86-17.34Q180.96-18.28 180.96-20.04L180.96-20.04Q180.96-21.80 179.88-22.76Q178.80-23.72 176.56-23.72L176.56-23.72L171.56-23.72ZM176.92-4.60Q179.16-4.60 180.36-5.58Q181.56-6.56 181.56-8.44L181.56-8.44Q181.56-10.32 180.34-11.34Q179.12-12.36 176.88-12.36L176.88-12.36L171.56-12.36L171.56-4.60L176.92-4.60Z M201.96-22.44Q204.76-22.44 206.76-21.12Q208.76-19.80 209.60-17.56L209.60-17.56L209.60-22.16L215.20-22.16L215.20 0L209.60 0L209.60-4.64Q208.76-2.40 206.76-1.06Q204.76 0.28 201.96 0.28L201.96 0.28Q199.16 0.28 196.92-1.08Q194.68-2.44 193.42-5.02Q192.16-7.60 192.16-11.08L192.16-11.08Q192.16-14.56 193.42-17.14Q194.68-19.72 196.92-21.08Q199.16-22.44 201.96-22.44L201.96-22.44ZM203.72-17.52Q201.08-17.52 199.48-15.80Q197.88-14.08 197.88-11.08L197.88-11.08Q197.88-8.08 199.48-6.38Q201.08-4.68 203.72-4.68L203.72-4.68Q206.28-4.68 207.94-6.42Q209.60-8.16 209.60-11.08L209.60-11.08Q209.60-14.04 207.94-15.78Q206.28-17.52 203.72-17.52L203.72-17.52Z M231.00-22.44Q233.80-22.44 235.78-21.12Q237.76-19.80 238.64-17.56L238.64-17.56L238.64-29.60L244.24-29.60L244.24 0L238.64 0L238.64-4.64Q237.76-2.40 235.78-1.06Q233.80 0.28 231.00 0.28L231.00 0.28Q228.20 0.28 225.96-1.08Q223.72-2.44 222.46-5.02Q221.20-7.60 221.20-11.08L221.20-11.08Q221.20-14.56 222.46-17.14Q223.72-19.72 225.96-21.08Q228.20-22.44 231.00-22.44L231.00-22.44ZM232.76-17.52Q230.12-17.52 228.52-15.80Q226.92-14.08 226.92-11.08L226.92-11.08Q226.92-8.08 228.52-6.38Q230.12-4.68 232.76-4.68L232.76-4.68Q235.32-4.68 236.98-6.42Q238.64-8.16 238.64-11.08L238.64-11.08Q238.64-14.04 236.98-15.78Q235.32-17.52 232.76-17.52L232.76-17.52Z M251.36-29.60L257.00-29.60L257.00 0L251.36 0L251.36-29.60Z M272.80-22.44Q275.60-22.44 277.60-21.12Q279.60-19.80 280.44-17.56L280.44-17.56L280.44-22.16L286.04-22.16L286.04 0L280.44 0L280.44-4.64Q279.60-2.40 277.60-1.06Q275.60 0.28 272.80 0.28L272.80 0.28Q270.00 0.28 267.76-1.08Q265.52-2.44 264.26-5.02Q263.00-7.60 263.00-11.08L263.00-11.08Q263.00-14.56 264.26-17.14Q265.52-19.72 267.76-21.08Q270.00-22.44 272.80-22.44L272.80-22.44ZM274.56-17.52Q271.92-17.52 270.32-15.80Q268.72-14.08 268.72-11.08L268.72-11.08Q268.72-8.08 270.32-6.38Q271.92-4.68 274.56-4.68L274.56-4.68Q277.12-4.68 278.78-6.42Q280.44-8.16 280.44-11.08L280.44-11.08Q280.44-14.04 278.78-15.78Q277.12-17.52 274.56-17.52L274.56-17.52Z M297.16-22.16L302.80-5.64L308.40-22.16L314.40-22.16L306.20 0L299.32 0L291.12-22.16L297.16-22.16Z M353.16-28.24L341.20-14.36L353.16 0L346.32 0L335.88-12.92L335.88 0L330.24 0L330.24-28.24L335.88-28.24L335.88-15.56L346.36-28.24L353.16-28.24Z M366.96-22.44Q369.76-22.44 371.76-21.12Q373.76-19.80 374.60-17.56L374.60-17.56L374.60-22.16L380.20-22.16L380.20 0L374.60 0L374.60-4.64Q373.76-2.40 371.76-1.06Q369.76 0.28 366.96 0.28L366.96 0.28Q364.16 0.28 361.92-1.08Q359.68-2.44 358.42-5.02Q357.16-7.60 357.16-11.08L357.16-11.08Q357.16-14.56 358.42-17.14Q359.68-19.72 361.92-21.08Q364.16-22.44 366.96-22.44L366.96-22.44ZM368.72-17.52Q366.08-17.52 364.48-15.80Q362.88-14.08 362.88-11.08L362.88-11.08Q362.88-8.08 364.48-6.38Q366.08-4.68 368.72-4.68L368.72-4.68Q371.28-4.68 372.94-6.42Q374.60-8.16 374.60-11.08L374.60-11.08Q374.60-14.04 372.94-15.78Q371.28-17.52 368.72-17.52L368.72-17.52Z"/></g>
</svg>
</g><g opacity="1" transform="rotate(0 95.8568 306.8038)">
<svg width="338.101" height="50" x="95.8568" y="306.8038" version="1.1" preserveAspectRatio="none" viewBox="2 -33.16 226.12 33.44">
  <g transform="matrix(1 0 0 1 0 0)" class="companyName"><path id="id-D6z1nYkh10" d="M14.40-9L10.88-9L10.88 0L2 0L2-28.32L14.40-28.32Q19.60-28.32 22.38-25.68Q25.16-23.04 25.16-18.60L25.16-18.60Q25.16-15.92 23.92-13.74Q22.68-11.56 20.26-10.28Q17.84-9 14.40-9L14.40-9ZM13.40-16Q16.16-16 16.16-18.60L16.16-18.60Q16.16-21.20 13.40-21.20L13.40-21.20L10.88-21.20L10.88-16L13.40-16Z M36.08-22.84Q38.28-22.84 39.88-21.94Q41.48-21.04 42.32-19.48L42.32-19.48L42.32-22.56L51.16-22.56L51.16 0L42.32 0L42.32-3.08Q41.48-1.52 39.88-0.62Q38.28 0.28 36.08 0.28L36.08 0.28Q33.44 0.28 31.32-1.10Q29.20-2.48 27.98-5.10Q26.76-7.72 26.76-11.28L26.76-11.28Q26.76-14.84 27.98-17.46Q29.20-20.08 31.32-21.46Q33.44-22.84 36.08-22.84L36.08-22.84ZM39.04-15.08Q37.60-15.08 36.68-14.08Q35.76-13.08 35.76-11.28L35.76-11.28Q35.76-9.48 36.68-8.48Q37.60-7.48 39.04-7.48L39.04-7.48Q40.48-7.48 41.40-8.48Q42.32-9.48 42.32-11.28L42.32-11.28Q42.32-13.08 41.40-14.08Q40.48-15.08 39.04-15.08L39.04-15.08Z M64.04-18.40Q65.40-20.36 67.36-21.54Q69.32-22.72 71.44-22.72L71.44-22.72L71.44-13.24L68.92-13.24Q66.40-13.24 65.22-12.36Q64.04-11.48 64.04-9.24L64.04-9.24L64.04 0L55.16 0L55.16-22.56L64.04-22.56L64.04-18.40Z M73.20-28.72Q73.20-30.64 74.60-31.90Q76-33.16 78.32-33.16L78.32-33.16Q80.60-33.16 82-31.90Q83.40-30.64 83.40-28.72L83.40-28.72Q83.40-26.84 82-25.60Q80.60-24.36 78.32-24.36L78.32-24.36Q76-24.36 74.60-25.60Q73.20-26.84 73.20-28.72L73.20-28.72ZM73.84-22.56L82.72-22.56L82.72 0L73.84 0L73.84-22.56Z M94.52-22.56L98.16-8.44L101.76-22.56L111.20-22.56L103.68 0L92.60 0L85.08-22.56L94.52-22.56Z M121.68-22.84Q123.88-22.84 125.48-21.94Q127.08-21.04 127.92-19.48L127.92-19.48L127.92-22.56L136.76-22.56L136.76 0L127.92 0L127.92-3.08Q127.08-1.52 125.48-0.62Q123.88 0.28 121.68 0.28L121.68 0.28Q119.04 0.28 116.92-1.10Q114.80-2.48 113.58-5.10Q112.36-7.72 112.36-11.28L112.36-11.28Q112.36-14.84 113.58-17.46Q114.80-20.08 116.92-21.46Q119.04-22.84 121.68-22.84L121.68-22.84ZM124.64-15.08Q123.20-15.08 122.28-14.08Q121.36-13.08 121.36-11.28L121.36-11.28Q121.36-9.48 122.28-8.48Q123.20-7.48 124.64-7.48L124.64-7.48Q126.08-7.48 127-8.48Q127.92-9.48 127.92-11.28L127.92-11.28Q127.92-13.08 127-14.08Q126.08-15.08 124.64-15.08L124.64-15.08Z M149.64-18.40Q151-20.36 152.96-21.54Q154.92-22.72 157.04-22.72L157.04-22.72L157.04-13.24L154.52-13.24Q152-13.24 150.82-12.36Q149.64-11.48 149.64-9.24L149.64-9.24L149.64 0L140.76 0L140.76-22.56L149.64-22.56L149.64-18.40Z M171.36-7.56L173.48-7.56L173.48 0L170.12 0Q160.84 0 160.84-9.24L160.84-9.24L160.84-15.16L158.04-15.16L158.04-22.56L160.84-22.56L160.84-28L169.72-28L169.72-22.56L173.40-22.56L173.40-15.16L169.72-15.16L169.72-9.08Q169.72-8.28 170.10-7.92Q170.48-7.56 171.36-7.56L171.36-7.56Z M185-22.84Q187.20-22.84 188.80-21.94Q190.40-21.04 191.24-19.48L191.24-19.48L191.24-22.56L200.08-22.56L200.08 0L191.24 0L191.24-3.08Q190.40-1.52 188.80-0.62Q187.20 0.28 185 0.28L185 0.28Q182.36 0.28 180.24-1.10Q178.12-2.48 176.90-5.10Q175.68-7.72 175.68-11.28L175.68-11.28Q175.68-14.84 176.90-17.46Q178.12-20.08 180.24-21.46Q182.36-22.84 185-22.84L185-22.84ZM187.96-15.08Q186.52-15.08 185.60-14.08Q184.68-13.08 184.68-11.28L184.68-11.28Q184.68-9.48 185.60-8.48Q186.52-7.48 187.96-7.48L187.96-7.48Q189.40-7.48 190.32-8.48Q191.24-9.48 191.24-11.28L191.24-11.28Q191.24-13.08 190.32-14.08Q189.40-15.08 187.96-15.08L187.96-15.08Z M219.88-22.72Q223.76-22.72 225.94-20.12Q228.12-17.52 228.12-13.08L228.12-13.08L228.12 0L219.28 0L219.28-11.96Q219.28-13.56 218.42-14.50Q217.56-15.44 216.12-15.44L216.12-15.44Q214.64-15.44 213.80-14.50Q212.96-13.56 212.96-11.96L212.96-11.96L212.96 0L204.08 0L204.08-22.56L212.96-22.56L212.96-19.12Q214.00-20.72 215.74-21.72Q217.48-22.72 219.88-22.72L219.88-22.72Z"/></g>
</svg>
</g></svg></svg>