<svg version="1.1" preserveAspectRatio="none" xmlns="http://www.w3.org/2000/svg" width="500" height="500" viewBox="0 0 500 500"><rect width="100%" height="100%" fill="#03D069" fill-opacity="1"/><svg viewBox="547.9911 429.8458 398.8708 245.6937" width="333" height="205.11905634606495" x="83.5px" y="147.4405px" xmlns="http://www.w3.org/2000/svg" xmlns:xlink="http://www.w3.org/1999/xlink" preserveAspectRatio="none"><defs></defs><style>.aLgOaV3zRcolors-3 {fill:#FF5606;fill-opacity:1;}.aLgOaV3zRcolors-4 {fill:#000C9C;fill-opacity:1;}.aLgOaV3zRcolors-5 {fill:#776730;fill-opacity:1;}.aLgOaV3zRcolors-6 {fill:#03D069;fill-opacity:1;}.aLgOaV3zRcolors-7 {fill:#E1E1E1;fill-opacity:1;}.companyName {fill:#E1E1E1;fill-opacity:1;}.icon1 {fill:#B6B5B5;fill-opacity:1;}.icon2 {fill:#03D0C6;fill-opacity:1;}.icon3 {fill:#FFC019;fill-opacity:1;}.icon3-str {stroke:#FFC019;stroke-opacity:1;}.text {fill:#E1E1E1;fill-opacity:1;}</style><g opacity="1" transform="rotate(0 642.5672 654.5395)">
<svg width="209.7185" height="21" x="642.5672" y="654.5395" version="1.1" preserveAspectRatio="none" viewBox="3.32 -29.68 377.04 37.760000000000005">
  <g transform="matrix(1 0 0 1 0 0)" class="text"><path id="id-6izo4zJp16" d="M15.44-28Q19.16-28 21.90-26.76Q24.64-25.52 26.12-23.24Q27.60-20.96 27.60-17.84L27.60-17.84Q27.60-14.76 26.12-12.46Q24.64-10.16 21.90-8.94Q19.16-7.72 15.44-7.72L15.44-7.72L9.80-7.72L9.80 0L3.32 0L3.32-28L15.44-28ZM15.08-13Q18-13 19.52-14.26Q21.04-15.52 21.04-17.84L21.04-17.84Q21.04-20.20 19.52-21.46Q18-22.72 15.08-22.72L15.08-22.72L9.80-22.72L9.80-13L15.08-13Z M39.32-18.68Q40.44-20.24 42.34-21.04Q44.24-21.84 46.72-21.84L46.72-21.84L46.72-16.08Q45.68-16.16 45.32-16.16L45.32-16.16Q42.64-16.16 41.12-14.66Q39.60-13.16 39.60-10.16L39.60-10.16L39.60 0L33.36 0L33.36-21.52L39.32-21.52L39.32-18.68Z M60.60-21.84Q65.60-21.84 68.28-19.46Q70.96-17.08 70.96-12.28L70.96-12.28L70.96 0L65.12 0L65.12-2.68Q63.36 0.32 58.56 0.32L58.56 0.32Q56.08 0.32 54.26-0.52Q52.44-1.36 51.48-2.84Q50.52-4.32 50.52-6.20L50.52-6.20Q50.52-9.20 52.78-10.92Q55.04-12.64 59.76-12.64L59.76-12.64L64.72-12.64Q64.72-14.68 63.48-15.78Q62.24-16.88 59.76-16.88L59.76-16.88Q58.04-16.88 56.38-16.34Q54.72-15.80 53.56-14.88L53.56-14.88L51.32-19.24Q53.08-20.48 55.54-21.16Q58.00-21.84 60.60-21.84L60.60-21.84ZM60.12-3.88Q61.72-3.88 62.96-4.62Q64.20-5.36 64.72-6.80L64.72-6.80L64.72-9L60.44-9Q56.60-9 56.60-6.48L56.60-6.48Q56.60-5.28 57.54-4.58Q58.48-3.88 60.12-3.88L60.12-3.88Z M93.16-21.52L99.16-21.52L89.44 1.32Q87.96 5.04 85.78 6.56Q83.60 8.08 80.52 8.08L80.52 8.08Q78.84 8.08 77.20 7.56Q75.56 7.04 74.52 6.12L74.52 6.12L76.80 1.68Q77.52 2.32 78.46 2.68Q79.40 3.04 80.32 3.04L80.32 3.04Q81.60 3.04 82.40 2.42Q83.20 1.80 83.84 0.36L83.84 0.36L83.92 0.16L74.60-21.52L81.04-21.52L87.08-6.92L93.16-21.52Z M111.28-21.84Q116.28-21.84 118.96-19.46Q121.64-17.08 121.64-12.28L121.64-12.28L121.64 0L115.80 0L115.80-2.68Q114.04 0.32 109.24 0.32L109.24 0.32Q106.76 0.32 104.94-0.52Q103.12-1.36 102.16-2.84Q101.20-4.32 101.20-6.20L101.20-6.20Q101.20-9.20 103.46-10.92Q105.72-12.64 110.44-12.64L110.44-12.64L115.40-12.64Q115.40-14.68 114.16-15.78Q112.92-16.88 110.44-16.88L110.44-16.88Q108.72-16.88 107.06-16.34Q105.40-15.80 104.24-14.88L104.24-14.88L102.00-19.24Q103.76-20.48 106.22-21.16Q108.68-21.84 111.28-21.84L111.28-21.84ZM110.80-3.88Q112.40-3.88 113.64-4.62Q114.88-5.36 115.40-6.80L115.40-6.80L115.40-9L111.12-9Q107.28-9 107.28-6.48L107.28-6.48Q107.28-5.28 108.22-4.58Q109.16-3.88 110.80-3.88L110.80-3.88Z M136.12 0.32Q133.44 0.32 130.88-0.34Q128.32-1 126.80-2L126.80-2L128.88-6.48Q130.32-5.56 132.36-4.98Q134.40-4.40 136.36-4.40L136.36-4.40Q140.32-4.40 140.32-6.36L140.32-6.36Q140.32-7.28 139.24-7.68Q138.16-8.08 135.92-8.36L135.92-8.36Q133.28-8.76 131.56-9.28Q129.84-9.80 128.58-11.12Q127.32-12.44 127.32-14.88L127.32-14.88Q127.32-16.92 128.50-18.50Q129.68-20.08 131.94-20.96Q134.20-21.84 137.28-21.84L137.28-21.84Q139.56-21.84 141.82-21.34Q144.08-20.84 145.56-19.96L145.56-19.96L143.48-15.52Q140.64-17.12 137.28-17.12L137.28-17.12Q135.28-17.12 134.28-16.56Q133.28-16 133.28-15.12L133.28-15.12Q133.28-14.12 134.36-13.72Q135.44-13.32 137.80-12.96L137.80-12.96Q140.44-12.52 142.12-12.02Q143.80-11.52 145.04-10.20Q146.28-8.88 146.28-6.52L146.28-6.52Q146.28-4.52 145.08-2.96Q143.88-1.40 141.58-0.54Q139.28 0.32 136.12 0.32L136.12 0.32Z M185.64-14.56Q188.04-13.80 189.40-12.02Q190.76-10.24 190.76-7.64L190.76-7.64Q190.76-3.96 187.90-1.98Q185.04 0 179.56 0L179.56 0L165.08 0L165.08-28L178.76-28Q183.88-28 186.62-26.04Q189.36-24.08 189.36-20.72L189.36-20.72Q189.36-18.68 188.38-17.08Q187.40-15.48 185.64-14.56L185.64-14.56ZM177.96-23.12L171.52-23.12L171.52-16.52L177.96-16.52Q180.36-16.52 181.60-17.36Q182.84-18.20 182.84-19.84L182.84-19.84Q182.84-21.48 181.60-22.30Q180.36-23.12 177.96-23.12L177.96-23.12ZM179.08-4.88Q181.64-4.88 182.94-5.72Q184.24-6.56 184.24-8.32L184.24-8.32Q184.24-11.80 179.08-11.80L179.08-11.80L171.52-11.80L171.52-4.88L179.08-4.88Z M205.52-21.84Q210.52-21.84 213.20-19.46Q215.88-17.08 215.88-12.28L215.88-12.28L215.88 0L210.04 0L210.04-2.68Q208.28 0.32 203.48 0.32L203.48 0.32Q201.00 0.32 199.18-0.52Q197.36-1.36 196.40-2.84Q195.44-4.32 195.44-6.20L195.44-6.20Q195.44-9.20 197.70-10.92Q199.96-12.64 204.68-12.64L204.68-12.64L209.64-12.64Q209.64-14.68 208.40-15.78Q207.16-16.88 204.68-16.88L204.68-16.88Q202.96-16.88 201.30-16.34Q199.64-15.80 198.48-14.88L198.48-14.88L196.24-19.24Q198.00-20.48 200.46-21.16Q202.92-21.84 205.52-21.84L205.52-21.84ZM205.04-3.88Q206.64-3.88 207.88-4.62Q209.12-5.36 209.64-6.80L209.64-6.80L209.64-9L205.36-9Q201.52-9 201.52-6.48L201.52-6.48Q201.52-5.28 202.46-4.58Q203.40-3.88 205.04-3.88L205.04-3.88Z M239.04-29.68L245.28-29.68L245.28 0L239.32 0L239.32-2.48Q237.00 0.32 232.60 0.32L232.60 0.32Q229.56 0.32 227.10-1.04Q224.64-2.40 223.24-4.92Q221.84-7.44 221.84-10.76L221.84-10.76Q221.84-14.08 223.24-16.60Q224.64-19.12 227.10-20.48Q229.56-21.84 232.60-21.84L232.60-21.84Q236.72-21.84 239.04-19.24L239.04-19.24L239.04-29.68ZM233.68-4.80Q236.04-4.80 237.60-6.42Q239.16-8.04 239.16-10.76L239.16-10.76Q239.16-13.48 237.60-15.10Q236.04-16.72 233.68-16.72L233.68-16.72Q231.28-16.72 229.72-15.10Q228.16-13.48 228.16-10.76L228.16-10.76Q228.16-8.04 229.72-6.42Q231.28-4.80 233.68-4.80L233.68-4.80Z M252.64 0L252.64-29.68L258.88-29.68L258.88 0L252.64 0Z M274.96-21.84Q279.96-21.84 282.64-19.46Q285.32-17.08 285.32-12.28L285.32-12.28L285.32 0L279.48 0L279.48-2.68Q277.72 0.32 272.92 0.32L272.92 0.32Q270.44 0.32 268.62-0.52Q266.80-1.36 265.84-2.84Q264.88-4.32 264.88-6.20L264.88-6.20Q264.88-9.20 267.14-10.92Q269.40-12.64 274.12-12.64L274.12-12.64L279.08-12.64Q279.08-14.68 277.84-15.78Q276.60-16.88 274.12-16.88L274.12-16.88Q272.40-16.88 270.74-16.34Q269.08-15.80 267.92-14.88L267.92-14.88L265.68-19.24Q267.44-20.48 269.90-21.16Q272.36-21.84 274.96-21.84L274.96-21.84ZM274.48-3.88Q276.08-3.88 277.32-4.62Q278.56-5.36 279.08-6.80L279.08-6.80L279.08-9L274.80-9Q270.96-9 270.96-6.48L270.96-6.48Q270.96-5.28 271.90-4.58Q272.84-3.88 274.48-3.88L274.48-3.88Z M307.52-21.52L313.52-21.52L304.44 0L298.00 0L288.96-21.52L295.40-21.52L301.36-6.88L307.52-21.52Z M350.20 0L341.24-11L337.48-7.08L337.48 0L331.04 0L331.04-28L337.48-28L337.48-14.92L349.88-28L357.08-28L345.48-15.52L357.76 0L350.20 0Z M370.00-21.84Q375.00-21.84 377.68-19.46Q380.36-17.08 380.36-12.28L380.36-12.28L380.36 0L374.52 0L374.52-2.68Q372.76 0.32 367.96 0.32L367.96 0.32Q365.48 0.32 363.66-0.52Q361.84-1.36 360.88-2.84Q359.92-4.32 359.92-6.20L359.92-6.20Q359.92-9.20 362.18-10.92Q364.44-12.64 369.16-12.64L369.16-12.64L374.12-12.64Q374.12-14.68 372.88-15.78Q371.64-16.88 369.16-16.88L369.16-16.88Q367.44-16.88 365.78-16.34Q364.12-15.80 362.96-14.88L362.96-14.88L360.72-19.24Q362.48-20.48 364.94-21.16Q367.40-21.84 370.00-21.84L370.00-21.84ZM369.52-3.88Q371.12-3.88 372.36-4.62Q373.60-5.36 374.12-6.80L374.12-6.80L374.12-9L369.84-9Q366.00-9 366.00-6.48L366.00-6.48Q366.00-5.28 366.94-4.58Q367.88-3.88 369.52-3.88L369.52-3.88Z"/></g>
</svg>
</g><g opacity="1" transform="rotate(0 547.9911 578.5395)">
<svg width="398.8708" height="60" x="547.9911" y="578.5395" version="1.1" preserveAspectRatio="none" viewBox="1.6 -30.92 206.88 31.12">
  <g transform="matrix(1 0 0 1 0 0)" class="companyName"><path id="id-D6z1nYkh10" d="M23.24-23.40Q24.28-21.28 24.28-18.68Q24.28-16.08 23.24-13.98Q22.20-11.88 20.56-10.64L20.56-10.64Q17.24-8.08 13.68-8.08L13.68-8.08L8.68-8.08L8.68-3.56Q8.68-2.64 8.62-2.18Q8.56-1.72 8.24-1.12L8.24-1.12Q7.68-0.04 5.12-0.04L5.12-0.04Q2.32-0.04 1.84-1.52L1.84-1.52Q1.60-2.20 1.60-3.60L1.60-3.60L1.60-25.80Q1.60-26.72 1.66-27.18Q1.72-27.64 2.04-28.24L2.04-28.24Q2.60-29.32 5.16-29.32L5.16-29.32L13.72-29.32Q17.24-29.32 20.56-26.76L20.56-26.76Q22.20-25.52 23.24-23.40ZM13.72-15.16Q14.92-15.16 16.08-16.04Q17.24-16.92 17.24-18.68Q17.24-20.44 16.08-21.34Q14.92-22.24 13.68-22.24L13.68-22.24L8.68-22.24L8.68-15.16L13.72-15.16Z M40.56-18.84L40.56-18.84Q40.80-21.08 43.72-21.08L43.72-21.08Q45.28-21.08 46.04-20.84Q46.80-20.60 47.10-20Q47.40-19.40 47.46-18.94Q47.52-18.48 47.52-17.56L47.52-17.56L47.52-3.56Q47.52-2.64 47.46-2.18Q47.40-1.72 47.12-1.12L47.12-1.12Q46.56-0.08 44.38-0.08Q42.20-0.08 41.46-0.62Q40.72-1.16 40.60-2.20L40.60-2.20Q39.12-0.08 35.66-0.08Q32.20-0.08 29.24-3.24Q26.28-6.40 26.28-10.58Q26.28-14.76 29.26-17.90Q32.24-21.04 35.80-21.04L35.80-21.04Q37.16-21.04 38.28-20.56Q39.40-20.08 39.84-19.66Q40.28-19.24 40.56-18.84ZM33.28-10.52Q33.28-9.20 34.32-8.14Q35.36-7.08 36.84-7.08Q38.32-7.08 39.30-8.16Q40.28-9.24 40.28-10.54Q40.28-11.84 39.34-12.96Q38.40-14.08 36.82-14.08Q35.24-14.08 34.26-12.96Q33.28-11.84 33.28-10.52Z M65.04-20.84Q65.80-20.60 66.30-20.02Q66.80-19.44 66.80-18.16Q66.80-16.88 66.04-15.36Q65.28-13.84 63.84-13.84L63.84-13.84Q63.12-13.84 62.46-14.16Q61.80-14.48 60.72-14.48Q59.64-14.48 58.70-13.72Q57.76-12.96 57.76-11.88L57.76-11.88L57.76-3.48Q57.76-2.56 57.70-2.10Q57.64-1.64 57.32-1.04L57.32-1.04Q56.72 0 54.20 0L54.20 0Q52.28 0 51.44-0.68L51.44-0.68Q50.80-1.24 50.72-2.40L50.72-2.40Q50.72-2.80 50.72-3.56L50.72-3.56L50.72-17.60Q50.72-18.52 50.78-18.98Q50.84-19.44 51.12-20L51.12-20Q51.68-21.08 54.24-21.08L54.24-21.08Q56.64-21.08 57.24-20.16L57.24-20.16Q57.68-19.52 57.68-18.84L57.68-18.84Q57.88-19.12 58.26-19.52Q58.64-19.92 59.88-20.60Q61.12-21.28 62.06-21.28Q63.00-21.28 63.64-21.18Q64.28-21.08 65.04-20.84Z M69-3.52L69-17.56Q69-18.48 69.06-18.94Q69.12-19.40 69.40-20L69.40-20Q69.96-21.04 72.52-21.04L72.52-21.04Q74.44-21.04 75.24-20.36L75.24-20.36Q75.92-19.80 75.96-18.64L75.96-18.64Q76-18.24 76-17.48L76-17.48L76-3.48Q76-2.56 75.94-2.10Q75.88-1.64 75.56-1.04L75.56-1.04Q75.04 0 72.48 0L72.48 0Q69.96 0 69.40-1.08L69.40-1.08Q69.12-1.68 69.06-2.12Q69-2.56 69-3.52L69-3.52ZM75.58-24.98Q75.28-24.40 74.52-24.16Q73.76-23.92 72.50-23.92Q71.24-23.92 70.48-24.16Q69.72-24.40 69.42-25Q69.12-25.60 69.06-26.06Q69-26.52 69-27.44Q69-28.36 69.06-28.82Q69.12-29.28 69.40-29.84L69.40-29.84Q69.96-30.92 72.52-30.92L72.52-30.92Q75.04-30.92 75.56-29.84L75.56-29.84Q75.88-29.24 75.94-28.78Q76-28.32 76-27.40Q76-26.48 75.94-26.02Q75.88-25.56 75.58-24.98Z M100.44-20.60L100.44-20.60Q102.52-19.36 102.52-17.96L102.52-17.96Q102.52-17.16 101.72-15.76L101.72-15.76L93.44-1.56Q93.04-0.88 92.16-0.34Q91.28 0.20 90.42 0.20Q89.56 0.20 88.78-0.22Q88.00-0.64 87.68-1.08L87.68-1.08L87.32-1.52L79.00-15.76Q78.20-17.08 78.20-17.92L78.20-17.92Q78.20-19.36 80.28-20.60L80.28-20.60Q81.80-21.48 82.68-21.48Q83.56-21.48 84.06-20.94Q84.56-20.40 85.12-19.32L85.12-19.32L90.36-9.24L95.60-19.32Q96.04-20.08 96.26-20.42Q96.48-20.76 96.96-21.10Q97.44-21.44 98.24-21.44Q99.04-21.44 100.44-20.60Z M117.20-18.84L117.20-18.84Q117.44-21.08 120.36-21.08L120.36-21.08Q121.92-21.08 122.68-20.84Q123.44-20.60 123.74-20Q124.04-19.40 124.10-18.94Q124.16-18.48 124.16-17.56L124.16-17.56L124.16-3.56Q124.16-2.64 124.10-2.18Q124.04-1.72 123.76-1.12L123.76-1.12Q123.20-0.08 121.02-0.08Q118.84-0.08 118.10-0.62Q117.36-1.16 117.24-2.20L117.24-2.20Q115.76-0.08 112.30-0.08Q108.84-0.08 105.88-3.24Q102.92-6.40 102.92-10.58Q102.92-14.76 105.90-17.90Q108.88-21.04 112.44-21.04L112.44-21.04Q113.80-21.04 114.92-20.56Q116.04-20.08 116.48-19.66Q116.92-19.24 117.20-18.84ZM109.92-10.52Q109.92-9.20 110.96-8.14Q112-7.08 113.48-7.08Q114.96-7.08 115.94-8.16Q116.92-9.24 116.92-10.54Q116.92-11.84 115.98-12.96Q115.04-14.08 113.46-14.08Q111.88-14.08 110.90-12.96Q109.92-11.84 109.92-10.52Z M141.68-20.84Q142.44-20.60 142.94-20.02Q143.44-19.44 143.44-18.16Q143.44-16.88 142.68-15.36Q141.92-13.84 140.48-13.84L140.48-13.84Q139.76-13.84 139.10-14.16Q138.44-14.48 137.36-14.48Q136.28-14.48 135.34-13.72Q134.40-12.96 134.40-11.88L134.40-11.88L134.40-3.48Q134.40-2.56 134.34-2.10Q134.28-1.64 133.96-1.04L133.96-1.04Q133.36 0 130.84 0L130.84 0Q128.92 0 128.08-0.68L128.08-0.68Q127.44-1.24 127.36-2.40L127.36-2.40Q127.36-2.80 127.36-3.56L127.36-3.56L127.36-17.60Q127.36-18.52 127.42-18.98Q127.48-19.44 127.76-20L127.76-20Q128.32-21.08 130.88-21.08L130.88-21.08Q133.28-21.08 133.88-20.16L133.88-20.16Q134.32-19.52 134.32-18.84L134.32-18.84Q134.52-19.12 134.90-19.52Q135.28-19.92 136.52-20.60Q137.76-21.28 138.70-21.28Q139.64-21.28 140.28-21.18Q140.92-21.08 141.68-20.84Z M157.88-14L157.88-14L155.28-14.16L155.28-8.64Q155.28-7.56 155.62-7.08Q155.96-6.60 156.90-6.60Q157.84-6.60 158.34-6.54Q158.84-6.48 159.40-6.16L159.40-6.16Q160.32-5.64 160.32-3.48L160.32-3.48Q160.32-0.96 159.20-0.40L159.20-0.40Q158.60-0.12 158.14-0.06Q157.68 0 156.80 0L156.80 0Q152.64 0 150.48-1.88Q148.32-3.76 148.32-8.24L148.32-8.24L148.32-14.16Q147.56-14.04 146.68-14.04Q145.80-14.04 145.22-14.72Q144.64-15.40 144.64-17.04Q144.64-18.68 144.84-19.42Q145.04-20.16 145.40-20.48L145.40-20.48Q146.04-21 147.00-21L147.00-21L148.32-20.84L148.32-24.96Q148.32-25.88 148.38-26.32Q148.44-26.76 148.76-27.28L148.76-27.28Q149.28-28.28 151.84-28.28L151.84-28.28Q154.56-28.28 155.08-26.80L155.08-26.80Q155.28-26.16 155.28-24.76L155.28-24.76L155.28-20.84Q157.04-21 157.94-21Q158.84-21 159.30-20.94Q159.76-20.88 160.36-20.56L160.36-20.56Q161.40-20.04 161.40-17.48L161.40-17.48Q161.40-14.96 160.32-14.40L160.32-14.40Q159.72-14.12 159.26-14.06Q158.80-14 157.88-14Z M177.28-18.84L177.28-18.84Q177.52-21.08 180.44-21.08L180.44-21.08Q182.00-21.08 182.76-20.84Q183.52-20.60 183.82-20Q184.12-19.40 184.18-18.94Q184.24-18.48 184.24-17.56L184.24-17.56L184.24-3.56Q184.24-2.64 184.18-2.18Q184.12-1.72 183.84-1.12L183.84-1.12Q183.28-0.08 181.10-0.08Q178.92-0.08 178.18-0.62Q177.44-1.16 177.32-2.20L177.32-2.20Q175.84-0.08 172.38-0.08Q168.92-0.08 165.96-3.24Q163.00-6.40 163.00-10.58Q163.00-14.76 165.98-17.90Q168.96-21.04 172.52-21.04L172.52-21.04Q173.88-21.04 175.00-20.56Q176.12-20.08 176.56-19.66Q177.00-19.24 177.28-18.84ZM170.00-10.52Q170.00-9.20 171.04-8.14Q172.08-7.08 173.56-7.08Q175.04-7.08 176.02-8.16Q177.00-9.24 177.00-10.54Q177.00-11.84 176.06-12.96Q175.12-14.08 173.54-14.08Q171.96-14.08 170.98-12.96Q170.00-11.84 170.00-10.52Z M199.16-21.08L199.16-21.08Q203.16-21.08 205.82-18.02Q208.48-14.96 208.48-10.56L208.48-10.56L208.48-3.52Q208.48-2.60 208.42-2.14Q208.36-1.68 208.08-1.12L208.08-1.12Q207.52-0.04 204.96-0.04L204.96-0.04Q202.12-0.04 201.68-1.52L201.68-1.52Q201.44-2.20 201.44-3.56L201.44-3.56L201.44-10.60Q201.44-12.24 200.50-13.16Q199.56-14.08 197.98-14.08Q196.40-14.08 195.42-13.12Q194.44-12.16 194.44-10.60L194.44-10.60L194.44-3.52Q194.44-2.60 194.38-2.14Q194.32-1.68 194.00-1.12L194.00-1.12Q193.48-0.04 190.92-0.04L190.92-0.04Q188.40-0.04 187.84-1.12L187.84-1.12Q187.56-1.72 187.50-2.18Q187.44-2.64 187.44-3.56L187.44-3.56L187.44-17.72Q187.44-18.60 187.50-19.06Q187.56-19.52 187.88-20.08L187.88-20.08Q188.44-21.08 190.96-21.08L190.96-21.08Q193.40-21.08 193.96-20.16L193.96-20.16Q194.36-19.48 194.36-18.52L194.36-18.52Q194.52-18.80 195.08-19.32Q195.64-19.84 196.16-20.16L196.16-20.16Q197.52-21.08 199.16-21.08Z"/></g>
</svg>
</g><g opacity="1" transform="rotate(0 667.6524 429.8458)">
<svg width="159.5483" height="108.6937" x="667.6524" y="429.8458" version="1.1" preserveAspectRatio="none" viewBox="20.000911712646484 45.499210357666016 159.9990997314453 109.00079345703125">
  <g transform="matrix(1 0 0 1 0 0)"><g><path d="M155.537 148.288c-3.972 1.511-8.259 1.805-12.471 1.721-4.237-.085-8.458-.541-12.695-.634-4.505-.099-8.989.352-13.437 1.032-4.685.716-9.503 2.13-14.272 1.838-4.444-.272-8.512-2.442-12.808-3.424-8.159-1.864-16.601-1.15-24.884-.934-4.128.108-8.276.109-12.38-.398-2.157-.266-4.3-.676-6.389-1.279-2.077-.6-4.318-1.305-6.023-2.687-1.05-.851-1.858-2.072-2.075-3.372 2.439-.273 4.804-2.88 6.571-4.17 3.309-2.417 7.02-4.237 10.886-5.568 8.348-2.875 17.217-3.457 25.978-3.6 4.719-.077 9.439-.035 14.157-.179 4.695-.143 9.378-.521 14.071-.704 4.797-.187 9.581-.108 14.345.532 4.688.63 9.327 1.631 13.942 2.658a336.331 336.331 0 0 1 13.498 3.297c4.03 1.073 9.108 2.38 10.576 6.868 1.483 4.541-2.936 7.614-6.59 9.003z" data-color="1" class="icon1"></path><path d="M155.537 148.288c-3.972 1.511-8.259 1.805-12.471 1.721-4.237-.085-8.458-.541-12.695-.634-4.505-.099-8.989.352-13.437 1.032-4.685.716-9.503 2.13-14.272 1.838-4.444-.272-8.512-2.442-12.808-3.424-8.159-1.864-16.601-1.15-24.884-.934-4.128.108-8.276.109-12.38-.398-2.157-.266-4.3-.676-6.389-1.279-2.077-.6-4.318-1.305-6.023-2.687-1.05-.851-1.858-2.072-2.075-3.372 2.439-.273 4.804-2.88 6.571-4.17 3.309-2.417 7.02-4.237 10.886-5.568 8.348-2.875 17.217-3.457 25.978-3.6 4.719-.077 9.439-.035 14.157-.179 4.695-.143 9.378-.521 14.071-.704 4.797-.187 9.581-.108 14.345.532 4.688.63 9.327 1.631 13.942 2.658a336.331 336.331 0 0 1 13.498 3.297c4.03 1.073 9.108 2.38 10.576 6.868 1.483 4.541-2.936 7.614-6.59 9.003z" opacity=".05"></path><path d="M99.319 71.506c-1.923-2.369-5.353-1.192-7.759-.338a24.639 24.639 0 0 0-4.814 2.344c-6.565-.301-13.143.042-19.68.721a349.14 349.14 0 0 0-22.659 3.126 73.844 73.844 0 0 0-5.846 1.219c-2.881-1.124-7.233-2.742-9.429-3.166-2.089-.403-6.288-1.055-7.518 1.307-.716 1.376-1.011 3.139-1.216 4.657a21.284 21.284 0 0 0-.087 4.713c.327 3.732.857 7.589 2.147 11.118.07.192.15.379.224.568a54.172 54.172 0 0 0-.961 7.025c-.366 5.301-.961 10.94-1.542 16.382-.491 4.6-.033 9.69 2.21 13.815 2.944 5.413 8.597 5.777 14.104 6.59 13.606 2.009 28.758 2.818 42.162-.864 2.468-.678 5.162-1.677 7.562-3.083a42.78 42.78 0 0 0 3.397-.582c3.79-.821 7.22-2.746 8.67-6.532 1.556-4.065.947-8.79.82-13.034-.159-5.34-.303-10.68-.479-16.026.44-3.015.072-6.04-.651-8.98a43.667 43.667 0 0 0-.819-4.423 47.409 47.409 0 0 0 2.582-7.985c.606-2.69 1.508-6.199-.418-8.572z" data-color="2" class="icon2"></path><path d="M58.075 95.219a.322.322 0 0 1-.267-.143c-.019-.029-1.955-2.889-8.621-6.193-6.606-3.273-8.065-3.464-8.124-3.47a.322.322 0 0 1-.284-.347.318.318 0 0 1 .339-.289c.059.005 1.524.151 8.351 3.534 6.85 3.394 8.792 6.293 8.872 6.415a.319.319 0 0 1-.266.493z" opacity=".21"></path><path d="M48.046 93.88a.313.313 0 0 1-.145-.035c-.022-.011-2.246-1.14-7.112-2.289-4.88-1.153-6.26-1.126-6.271-1.127h-.009a.318.318 0 0 1-.009-.638c.059.002 1.483-.026 6.435 1.143 4.954 1.171 7.165 2.296 7.257 2.343a.32.32 0 0 1-.146.603z" opacity=".21"></path><path d="M44.209 128.399c-.41 0-.818-.007-1.225-.022-8.443-.307-13.276-1.414-13.324-1.425a.32.32 0 0 1 .144-.622c.047.011 4.828 1.105 13.203 1.409 8.365.303 17.736-2.712 17.829-2.743a.319.319 0 0 1 .196.607c-.09.03-8.691 2.796-16.823 2.796z" opacity=".21"></path><path d="M49.931 134.896c-2.348 0-3.934-.193-3.969-.198a.319.319 0 0 1 .08-.634c.076.009 7.666.932 14.262-1.335 6.557-2.253 9.006-5.49 9.03-5.522a.318.318 0 1 1 .512.378c-.102.139-2.571 3.423-9.336 5.748-3.706 1.275-7.711 1.563-10.579 1.563z" opacity=".21"></path><path d="M105.183 94.406s-5.348 1.791-5.836 1.494h-.004c-.413-.26-4.833-4.217-6.563-5.961-.453-.451-.718-.754-.694-.807.119-.27 1.151-1.741 1.151-1.741h.004c.004 0 .004.004.009.004.105.023.846.182 1.849.487 1.262.389 2.94 1.012 4.254 1.876 2.442 1.611 5.83 4.648 5.83 4.648z" data-color="1" class="icon1"></path><path d="m159.108 126.743 5.73 6.342-1.747 3.964-3.537 1.16-12.156-8.156 11.71-3.31z" data-color="3" class="icon3"></path><path d="M179.997 134.868c.253.766-15.46 9.463-16.484 9.458-.484-.003-3.126-2.598-3.66-3.587-.138-.256-1.221-2.97-1.192-3.128-.004-.004-.004-.004 0-.004 1.387-.283 3.167-.479 4.488-2.68.705-1.18.507-3.148.507-3.148h.004c.065-.005 2.511.031 4.346.053.235.002.462.003.671.009.684.005 1.194.012 1.308.006.292-.012.606-.025.928-.042.218-.007.444-.018.671-.03 2.391-.12 5.113-.289 5.38-.213 1.923.544 2.776 2.548 3.033 3.306z" data-color="4" class="aLgOaV3zRcolors-3"></path><path d="M179.997 134.868c.253.766-15.46 9.463-16.484 9.458-.484-.003-3.126-2.598-3.66-3.587-.138-.256-1.221-2.97-1.192-3.128-.004-.004-.004-.004 0-.004 1.387-.283 3.167-.479 4.488-2.68.705-1.18.507-3.148.507-3.148h.004c.065-.005 2.511.031 4.346.053.235.002.462.003.671.009.684.005 1.194.012 1.308.006.292-.012.606-.025.928-.042.218-.007.444-.018.671-.03 2.391-.12 5.113-.289 5.38-.213 1.923.544 2.776 2.548 3.033 3.306z" opacity=".35"></path><path d="M168.936 134.21a.325.325 0 0 1-.395-.24l-.535-2.139c.235.002.462.003.671.009l.499 1.974a.333.333 0 0 1-.24.396z" data-color="1" class="icon1"></path><path d="M171.701 133.591a.329.329 0 0 1-.399-.24l-.389-1.547c.218-.007.444-.018.671-.03l.353 1.416a.331.331 0 0 1-.236.401z" data-color="1" class="icon1"></path><path d="M163.935 143.492a.321.321 0 0 1-.281-.167.32.32 0 0 1 .129-.433l15.229-8.257a.318.318 0 0 1 .431.129.32.32 0 0 1-.129.433l-15.229 8.257a.321.321 0 0 1-.15.038z" data-color="1" class="icon1"></path><path d="M102.049 92.078a.309.309 0 0 1-.196-.069c-.006-.005-.64-.506-1.574-1.313-.892-.77-2.625-1.51-2.643-1.518a.319.319 0 0 1 .248-.588c.075.032 1.844.787 2.81 1.622a50.29 50.29 0 0 0 1.553 1.295.32.32 0 0 1-.198.571z" data-color="1" class="icon1"></path><path d="m154.359 136.987 5.827 6.253-1.685 3.991-3.52 1.214-12.279-7.967 11.657-3.491z" data-color="3" class="icon3"></path><path d="M175.371 144.788c.265.762-15.312 9.701-16.337 9.712-.484.005-3.165-2.549-3.715-3.53-.142-.254-1.267-2.951-1.24-3.109-.004-.004-.004-.004 0-.004 1.382-.305 3.16-.528 4.446-2.749.687-1.19.459-3.156.459-3.156h.004c.065-.006 2.511-.008 4.346-.014.235-.002.462-.004.671-.001.684-.006 1.194-.007 1.308-.014.292-.017.605-.034.927-.056.218-.01.444-.025.67-.04 2.389-.157 5.108-.368 5.376-.296 1.933.513 2.816 2.504 3.085 3.257z" data-color="4" class="aLgOaV3zRcolors-3"></path><path d="M175.371 144.788c.265.762-15.312 9.701-16.337 9.712-.484.005-3.165-2.549-3.715-3.53-.142-.254-1.267-2.951-1.24-3.109-.004-.004-.004-.004 0-.004 1.382-.305 3.16-.528 4.446-2.749.687-1.19.459-3.156.459-3.156h.004c.065-.006 2.511-.008 4.346-.014.235-.002.462-.004.671-.001.684-.006 1.194-.007 1.308-.014.292-.017.605-.034.927-.056.218-.01.444-.025.67-.04 2.389-.157 5.108-.368 5.376-.296 1.933.513 2.816 2.504 3.085 3.257z" opacity=".35"></path><path d="M164.301 144.301a.326.326 0 0 1-.399-.234l-.568-2.131c.235-.002.462-.004.671-.001l.529 1.966a.332.332 0 0 1-.233.4z" data-color="1" class="icon1"></path><path d="M167.056 143.64c-.026.005-.052.01-.078.011a.33.33 0 0 1-.325-.245l-.413-1.54c.218-.01.444-.025.67-.04l.374 1.41a.328.328 0 0 1-.228.404z" data-color="1" class="icon1"></path><path d="M159.439 153.66a.319.319 0 0 1-.156-.598l15.101-8.491a.32.32 0 0 1 .434.122.32.32 0 0 1-.122.435l-15.101 8.491a.33.33 0 0 1-.156.041z" data-color="1" class="icon1"></path><path d="M68.426 50.57c-.992-2.415-3.682-4.124-6.091-4.897-1.113-.357-2.07-.177-2.9.661-.965.974-1.925 2.406-2.251 3.747-.596 2.457 1.789 4.015 4 3.812 1.537-.141 3.137-.869 4.457-1.649.951-.562 1.693-1.307 1.941-2.358.16.255.308.521.427.811.106.258.524.134.417-.127z" data-color="5" class="aLgOaV3zRcolors-4"></path><path d="M90.569 70.49c-.01-.827-.022-1.654-.038-2.481-.093-4.999-.145-10.381-3.257-14.474-2.554-3.358-6.519-5.357-10.562-5.312-.767-.532-1.997-.523-2.815-.565a12.896 12.896 0 0 0-4.97.731c-2.846 1.014-5.283 3.038-6.93 5.696-1.871 3.02-3.595 6.506-3.678 10.05-.049 2.1-.027 4.218-.358 6.295-.272 1.702-1.226 3.451-1.023 5.201.106.914.521 1.743.787 2.609.403 1.307.023 2.28-.222 3.538-.304 1.558.569 2.909 1.674 3.849.092.079.217.158.321.098.098-.056.11-.198.109-.316l-.008-1.355.576 1.382c.053.128.126.272.255.296.139.025.254-.101.367-.19.903-.715 3.403.55 4.467.088.374-.163.674-.471 1.031-.673.561-.317 1.221-.352 1.856-.38 3.065-.136 6.131-.312 9.199-.354 1.421-.019 2.85-.047 4.271.006 1.031.038 2.359-.218 3.312.262.192.097.373.229.582.275.661.143 1.241-.518 1.897-.544.635-.025 1.612.658 2.152.065.158-.173.27-.413.355-.686.227.498.471.989.748 1.467.095.164.36.132.397-.066.897-4.846-.023-9.671-.495-14.512z" data-color="5" class="aLgOaV3zRcolors-4"></path><path d="M93.253 63.845a30.64 30.64 0 0 0-1.44-5.96c-.934-2.664-2.3-5.34-4.614-6.903-1.27-.858-2.37-1.882-3.803-2.434-1.842-.709-3.809-.909-5.748-.932-1.791-.021-3.721-.17-5.457.379-2.83.896-6.106 3.157-7.481 6.075-.773 1.639-1.066 3.507-1.378 5.302-.313 1.8-.566 3.64-.274 5.468.325 2.035 1.156 3.957 1.755 5.908.313 1.019.605 2.045.876 3.078.213.813.332 1.774.759 2.501.765 1.303 2.448 1.443 3.719 1.608 1.893.245 3.806.205 5.686-.12 2.057-.356 4.041-1.057 6.055-1.615a38.147 38.147 0 0 1 7.076-1.243 7.333 7.333 0 0 1-2.222 1.64c-.253.121-.128.576.128.454 2.623-1.25 3.998-3.732 4.656-6.571.165.885.335 1.768.513 2.65.029.145.215.216.324.133 1.032-.793 1.036-2.286 1.108-3.539a30.566 30.566 0 0 0-.238-5.879z" data-color="5" class="aLgOaV3zRcolors-4"></path><path d="M66.627 71.19s.194 11.374-.312 13.514c-.506 2.14-4.137 8.099-4.137 8.099L78.9 91.667l5.531-5.203s-3.319-.328-3.658-1.168c-.339-.84.576-4.533.576-4.533L66.627 71.19z" data-color="3" class="icon3"></path><path d="M90.774 64.749c.009.345.015.69.011 1.036 0 .144-.005.289-.01.433-.004.345-.02.691-.037 1.041a42.466 42.466 0 0 1-.806 6.259c-.057.303-.123.607-.193.901-.683 2.943-1.723 4.268-3.468 5.99-2.785 2.747-5.899 3.634-10.201.635-4.294-2.999-8.449-7.443-9.111-9.488-.666-2.041.335-9.609 1.931-11.816 1.61-2.204 3.008-3.536 5.055-3.597 2.052-.065 7.735-2.031 8.788-1.819 1.052.216 7.536 4.225 7.536 4.225.408.111.462 4.927.482 5.53.011.224.013.447.023.67z" data-color="3" class="icon3"></path><path d="M79.158 67.641c-.023-.462-.193-.886-.699-.808-.241.037-.449.21-.577.411-.127.201-.186.43-.235.655-.073.339-.126.704.027 1.003.115.226.368.397.644.366.369-.042.622-.403.733-.741.064-.197.124-.551.107-.886z" opacity=".78"></path><path d="M89.018 68.986c-.023-.443-.185-.849-.669-.774-.231.036-.431.201-.553.394-.122.193-.178.412-.225.628-.07.325-.121.675.025.961.11.217.353.38.617.351.354-.04.596-.386.702-.71.062-.189.119-.529.103-.85z" opacity=".78"></path><path d="M79.159 76.467s.951.417 2.476.719c1.658.329 2.467.38 2.467.38s-1.075 1.447-2.965.896c-1.891-.552-1.978-1.995-1.978-1.995z" opacity=".21"></path><path d="M84.115 75.101c-.346 0-.611-.078-.635-.085a.32.32 0 0 1 .185-.611c.034.01.887.254 1.287-.323.167-.241.052-1.496-.16-2.518a.32.32 0 0 1 .624-.131c.116.559.464 2.43.059 3.013-.37.534-.928.655-1.36.655z" opacity=".21"></path><path d="M80.715 64.21c-.687-.284-1.454-.343-2.188-.273-.504.048-1.358.103-1.573.666-.028.072.002.16.053.214.16.171.34.162.568.192.503.066 1.007.135 1.512.188.458.048 1.716.334 2.048-.169.238-.362-.108-.689-.42-.818z" data-color="5" class="aLgOaV3zRcolors-4"></path><path d="M90.775 66.218c-.004.345-.02.691-.037 1.041-.464-.07-.928-.141-1.393-.224-.451-.084-1.74-.162-1.921-.738-.125-.412.297-.629.631-.664.739-.082 1.493.077 2.181.351.155.06.349.138.539.234z" data-color="5" class="aLgOaV3zRcolors-4"></path><path d="M79.893 82.941c-.225 0-.732-.207-2.122-.775-2.77-1.132-6.449-4.195-6.604-4.325a.32.32 0 0 1-.041-.45.317.317 0 0 1 .448-.041c.037.031 3.759 3.13 6.437 4.224 1.31.536 1.708.678 1.826.716a.324.324 0 0 1 .165.052.33.33 0 0 1 .113.422c-.056.108-.092.177-.222.177z" opacity=".21"></path><path d="M69.039 66.056s-1.061-3.147-3.428-2.262c-2.366.886-1.047 6.033-.168 7.405.879 1.372 2.377 1.616 2.377 1.616l1.219-6.759z" data-color="3" class="icon3"></path><path d="M66.281 71.17a.316.316 0 0 1-.279-.166c-.033-.059-.804-1.48-.963-2.843-.092-.787-.183-1.776-.094-2.017a.317.317 0 0 1 .409-.189.32.32 0 0 1 .199.378c-.006.042-.041.383.119 1.755.145 1.238.882 2.597.889 2.611a.319.319 0 0 1-.28.471z" opacity=".21"></path><path d="M91.222 63.724c.001-.005.004-.009.004-.015.126-1.526.248-3.159-.326-4.617-.484-1.23-1.489-2.13-2.541-2.882-2.719-1.946-5.679-2.282-8.926-2.196-1.778.047-3.294-.067-4.974.618-1.552.632-3.147 1.343-4.583 2.21-2.939 1.777-2.987 6.851-2.987 6.851s1.165.251 1.924 2.234c.002.005.01-.001.015 0-.332 1.206-.686 2.735-.298 3.775.136.363.357.681.737.378.385-.307.608-1.657.76-2.092l.139-.398c.066.425.241.821.621.528.314-.241.516-.855.699-1.196.071-.133.137-.267.206-.401a8.354 8.354 0 0 1 1.848-2.108c.998-.818 1.987-1.64 2.933-2.52.827-.769 1.702-1.549 2.273-2.538.244-.423.426-.872.57-1.334.598 1.35 1.646 2.452 2.865 3.262 2.638 1.753 5.834 2.227 8.864 2.833.248.051.355-.283.177-.392z" data-color="5" class="aLgOaV3zRcolors-4"></path><path d="M76.223 69.754c-.474-.218-1.174-.329-1.663-.096-1.01.481.219 1.682.786 1.912.508.206 1.165.28 1.688.1.481-.166.606-.575.363-1.007-.264-.472-.704-.694-1.174-.909z" opacity=".21"></path><path d="M90.289 71.546a38.11 38.11 0 0 1-.356 1.972 2.205 2.205 0 0 1-.912-.333c-.422-.281-.438-.709-.094-1.064.373-.386.854-.486 1.362-.575z" opacity=".21"></path><path d="M78.472 56.956a.317.317 0 0 1-.264-.14c-.006-.009-.614-.9-2.107-2.085-.765-.607-1.149-1.097-1.52-1.571-.401-.511-.779-.994-1.644-1.617-1.599-1.152-3.189-1.231-3.205-1.232a.319.319 0 0 1-.305-.332c.007-.176.152-.329.33-.306.072.002 1.789.081 3.552 1.351.938.676 1.362 1.218 1.773 1.742.364.465.709.904 1.415 1.464 1.58 1.254 2.214 2.19 2.24 2.229a.319.319 0 0 1-.265.497z" opacity=".21"></path><path d="M70.322 66.426a.32.32 0 0 1-.296-.436c.043-.109 1.066-2.68 2.498-4.273.888-.988 1.382-1.298 1.86-1.598.296-.186.603-.378 1.023-.747 1.055-.929 1.532-1.876 1.537-1.886a.316.316 0 0 1 .426-.144.32.32 0 0 1 .144.427c-.021.043-.532 1.066-1.688 2.082-.459.404-.788.61-1.105.809-.461.289-.896.562-1.724 1.484-1.354 1.506-2.37 4.055-2.38 4.081a.317.317 0 0 1-.295.201z" opacity=".21"></path><path d="M69.199 64.232a.319.319 0 0 1-.31-.391c.02-.089.516-2.205 1.579-3.505 1.07-1.309 2.057-1.692 2.098-1.708a.32.32 0 0 1 .224.597c-.007.003-.878.35-1.83 1.515-.97 1.186-1.447 3.223-1.451 3.244a.319.319 0 0 1-.31.248z" opacity=".21"></path><path d="M91.698 62.931a.309.309 0 0 1-.103-.017l-1.403-.48c-.383-.131-.967-.253-1.644-.394-1.383-.288-3.104-.646-4.599-1.363-2.275-1.09-4.071-4.176-4.146-4.307a.318.318 0 1 1 .551-.319c.017.03 1.773 3.047 3.869 4.05 1.426.683 3.105 1.033 4.454 1.314.698.145 1.3.271 1.72.414l1.403.48a.32.32 0 0 1-.102.622z" opacity=".21"></path><path d="M62.657 53.73a.319.319 0 0 1-.252-.512c.01-.013 1-1.318 1.7-2.153.733-.873 2.385-1.81 2.455-1.85a.32.32 0 0 1 .313.556c-.016.009-1.622.92-2.28 1.704-.691.824-1.671 2.116-1.681 2.129a.324.324 0 0 1-.255.126z" opacity=".21"></path><path d="M104.502 113.368c-.012-.437 15.97-11.221 26.171-10.19 10.201 1.031 29.22 24.259 29.302 24.621.083.362-7.066 7.363-7.066 7.363s-28.347-10.979-28.783-10.967c-.436.012-23.414 4.723-24.14 4.743-.726.02-11.047-3.485-9.919-5.702 1.129-2.217 14.435-9.868 14.435-9.868z" data-color="6" class="aLgOaV3zRcolors-5"></path><path d="M79.699 130.927s1.845 6.114 5.436 9.654 12.456 6.513 17.09 5.434c8.032-1.871 20.125-11.937 20.786-11.981.661-.044 1.172 1.434 2.56 1.792 1.388.358 2.168.216 3.08.965.911.749 3.135 2.618 4.805 3.443 1.67.825 3.721 3.335 7.765 4.506 4.045 1.171 6.268 1.942 6.863 1.452.596-.49 8.05-7.212 8.05-7.212s-11.837-14.243-17.174-18.946c-5.337-4.703-7.367-9.626-15.141-9.632-7.773-.006-27.183 10.246-27.183 10.246l-16.937 10.279z" data-color="6" class="aLgOaV3zRcolors-5"></path><path d="M101.857 120.253c-4.646 5.482-20.612 14.253-20.612 14.253l2.191 4.062s-2.825 3.194-6.334.345c-3.505-2.859-3.177-3.794-6.664-7.742-3.487-3.948-15.405-25.437-15.562-31.011-.227-8.151 7.167-12.795 8.676-14.043 1.509-1.248 2.946-2.918 2.946-2.918s3.985 2.089 8.558 1.911c4.573-.182 5.66-.814 5.66-.814s5.33.792 9.554 2.018a28.42 28.42 0 0 1 1.804.589c.423.159.815.319 1.164.488h.004c.004 0 .004.004.009.004.318.153.606.307.841.471.191.126.383.287.58.478 1.455 1.394 3.084 4.37 4.671 7.556h.004c2.2 4.416 4.316 9.24 5.737 10.823 2.585 2.879 1.419 8.047-3.227 13.53z" data-color="1" class="icon1"></path><path d="m90.069 93.402.994-2.759s9.19.185 15.476.231c6.287.046 11.399.998 11.399.998s4.94-5.345 6.924-7.221c1.983-1.876 6.117-4.831 6.117-4.831l1.453 1.308s-12.901 18.495-13.119 18.501c-.218.006-17.054-1.863-18.724-1.817-1.67.046-10.52-4.41-10.52-4.41z" data-color="1" class="icon1"></path><path d="m90.069 93.402.994-2.759s9.19.185 15.476.231c6.287.046 11.399.998 11.399.998s4.94-5.345 6.924-7.221c1.983-1.876 6.117-4.831 6.117-4.831l1.453 1.308s-12.901 18.495-13.119 18.501c-.218.006-17.054-1.863-18.724-1.817-1.67.046-10.52-4.41-10.52-4.41z" opacity=".12"></path><path d="m116.688 93.945-26.994-1.298-8.747 30.912 24.699-.241 11.042-29.373z" data-color="4" class="aLgOaV3zRcolors-3"></path><path d="m116.688 93.945 4.04-1.04 13.09-13.583-15.108 31.329-8.69 11.18-4.374 1.487 3.291-21.182 7.751-8.191z" data-color="4" class="aLgOaV3zRcolors-3"></path><path d="M105.951 122.809a.318.318 0 0 1-.297-.432l10.569-28.048a.318.318 0 1 1 .595.225l-10.569 28.048a.32.32 0 0 1-.298.207z" opacity=".21"></path><path d="M110.261 120.997a.32.32 0 0 1-.296-.436l10.647-27.176a.32.32 0 0 1 .593.234l-10.647 27.176a.32.32 0 0 1-.297.202z" opacity=".21"></path><path d="M116.833 93.25c-.011 0-.022 0-.032-.002-.062-.006-6.236-.625-12.029-.952-5.787-.326-12.934-.19-13.006-.188h-.006a.318.318 0 0 1-.006-.638c.072 0 7.242-.138 13.054.189 5.808.327 11.995.948 12.057.955a.318.318 0 0 1-.032.636z" data-color="1" class="icon1"></path><path d="M119.486 92.63a.32.32 0 0 1-.237-.532c.037-.041 3.69-4.139 5.633-6.142 1.951-2.011 5.931-5.27 5.971-5.303a.32.32 0 0 1 .402.495c-.039.032-3.991 3.268-5.917 5.254-1.933 1.993-5.578 6.081-5.614 6.122a.32.32 0 0 1-.238.106z" data-color="1" class="icon1"></path><path d="m126.259 88.874-1.156 3.091 4.015-4.481 1.521-3.157-4.38 4.547z" data-color="1" class="icon1"></path><path d="m104.556 119.711-.817 2.621-5.423-.015.55-2.582 5.69-.024z" data-color="1" class="icon1"></path><path d="m98.314 95.616-.023-.001-7.136-.505a.319.319 0 0 1 .045-.637l7.136.505a.318.318 0 0 1 .295.341.319.319 0 0 1-.317.297z" data-color="1" class="icon1"></path><path d="m95.074 97.044-.024-.001-4.296-.319a.32.32 0 0 1-.294-.342.323.323 0 0 1 .341-.295l4.296.319a.32.32 0 0 1-.023.638z" data-color="1" class="icon1"></path><path d="M90.582 109.139c.036-.067.052-.147.023-.214-.441-1.032-1.443-1.187-2.464-1.347-1.571-.246-3.212-.439-4.784-.094-3.074.675-4.903 3.654-6.456 6.162-.055.089-.048.172-.008.237a.269.269 0 0 0 .032.139l.052.096a.252.252 0 0 0-.016.292l2.744 4.553c.06.1.201.144.31.107 2.592-.893 5.11-2.026 7.564-3.246.806-.401 1.848-1.268 1.753-2.133.892-.467 1.851-.899 2.015-1.963.078-.503.379-.959.209-1.485-.147-.456-.527-.821-.974-1.104z" data-color="3" class="icon3"></path><path d="M90.202 109.373h-.018l-4.579-.249a.319.319 0 0 1-.3-.336.312.312 0 0 1 .335-.301l4.579.249a.319.319 0 0 1-.017.637z" opacity=".21"></path><path d="M85.675 111.604a.318.318 0 0 1-.008-.638l4.856-.133c.163.007.322.134.327.31a.32.32 0 0 1-.31.328l-4.856.133h-.009z" opacity=".21"></path><path d="M88.723 114.039h-.013l-2.708-.111a.319.319 0 0 1-.305-.332c.007-.177.171-.32.331-.306l2.708.111a.319.319 0 0 1-.013.638z" opacity=".21"></path><path d="M78.318 112.43s-18.623 3.822-20.981 5.002c-3.656 1.83-4.876 9.793 1.022 10.791 8.057 1.363 21.657-9.154 21.657-9.154l-.434-4.288-1.264-2.351z" data-color="3" class="icon3"></path><path d="m52.798 114.521 1.604 10.015 12.762-4.179-1.683-9.56-12.683 3.724z" data-color="3" class="icon3"></path><path d="M59.578 89.454s-7.269 4.511-8.275 7.599c-1.006 3.088-2.285 9.461-1.555 12.246.73 2.785.574 2.408.478 4.204-.096 1.796-.204 3.183.175 3.756.379.572 18.016-3.153 17.852-3.677-.163-.525-8.675-24.128-8.675-24.128z" data-color="1" class="icon1"></path><path d="M59.578 118.309a.32.32 0 0 1-.156-.598 70.37 70.37 0 0 1 2.448-1.275c1.619-.812 3.84-1.483 3.934-1.511a.32.32 0 0 1 .182.611c-.022.007-2.263.683-3.831 1.471-1.587.796-2.415 1.258-2.423 1.262a.319.319 0 0 1-.154.04z" opacity=".21"></path><path d="M76.943 112.618a.899.899 0 0 0-.694-.336c-.667.007-1.036.775-.73 1.337a.94.94 0 0 0 .671.471.8.8 0 0 0 .446-.054.838.838 0 0 0 .366-.334.98.98 0 0 0 .038-.935.778.778 0 0 0-.097-.149z" data-color="5" class="aLgOaV3zRcolors-4"></path><path d="M77.501 115.162a.899.899 0 0 0-.694-.336c-.667.007-1.036.775-.73 1.337a.938.938 0 0 0 .671.471.8.8 0 0 0 .446-.054.838.838 0 0 0 .366-.334.974.974 0 0 0 .037-.935.744.744 0 0 0-.096-.149z" data-color="5" class="aLgOaV3zRcolors-4"></path><path d="M78.328 117.834a.899.899 0 0 0-.694-.336c-.667.007-1.036.775-.73 1.337a.938.938 0 0 0 .671.471.8.8 0 0 0 .446-.054.832.832 0 0 0 .366-.334.977.977 0 0 0 .037-.935.806.806 0 0 0-.096-.149z" data-color="5" class="aLgOaV3zRcolors-4"></path><path d="M77.128 114.197a.627.627 0 0 1-.039.5.647.647 0 0 1-.849.24c-.697-.391-.09-1.483.609-1.091a.621.621 0 0 1 .279.351z" data-color="1" class="icon1"></path><path d="M77.704 116.923a.627.627 0 0 1-.039.5.647.647 0 0 1-.849.24c-.697-.391-.09-1.483.609-1.091a.618.618 0 0 1 .279.351z" data-color="1" class="icon1"></path><path d="M78.866 119.562a.63.63 0 0 1-.038.5.647.647 0 0 1-.849.24c-.697-.391-.09-1.483.609-1.091.134.076.23.205.278.351z" data-color="1" class="icon1"></path><path d="M152.488 134.988a.317.317 0 0 1-.232-.101c-.151-.161-15.129-16.123-18.222-19.349-3.363-3.507-5.941-4.771-9.854-4.831-4.063-.062-5.329.857-5.342.867a.32.32 0 0 1-.445-.058.317.317 0 0 1 .052-.444c.055-.044 1.385-1.073 5.745-1.003 4.634.071 7.378 1.976 10.303 5.028 3.095 3.228 18.075 19.193 18.226 19.354a.32.32 0 0 1-.231.537z" opacity=".21"></path><path d="M123.244 133.422a.32.32 0 0 1-.216-.555c.016-.015 1.613-1.498 2.45-3.298.834-1.794.923-2.908.923-2.919a.312.312 0 0 1 .34-.295.318.318 0 0 1 .295.34c-.003.049-.092 1.231-.981 3.145-.891 1.917-2.527 3.435-2.596 3.499a.32.32 0 0 1-.215.083z" opacity=".21"></path><path d="M124.023 134.005a.32.32 0 0 1-.13-.61c.024-.011 2.418-1.088 3.154-1.97l.791-.951a.319.319 0 1 1 .489.409l-.791.951c-.83.996-3.279 2.097-3.383 2.144a.32.32 0 0 1-.13.027z" opacity=".21"></path><path d="M64.698 89.181c-1.169.968-2.701 3.102-2.496 4.693a.22.22 0 0 0 .098.159c.273.695 1.623-.154 2.249-.646 1.187-.932 3.216-2.879 3.158-4.573-.051-1.507-2.461-.086-3.009.367z" data-color="2" class="icon2"></path><path d="M69.587 101.806c-1.169.968-2.701 3.102-2.496 4.693a.22.22 0 0 0 .098.159c.273.695 1.623-.154 2.249-.645 1.187-.932 3.216-2.879 3.158-4.573-.052-1.508-2.461-.088-3.009.366z" data-color="2" class="icon2"></path><path d="M53.568 104.808c-1.169.968-2.701 3.102-2.496 4.693a.216.216 0 0 0 .098.159c.273.695 1.623-.154 2.249-.645 1.187-.932 3.216-2.879 3.158-4.573-.052-1.508-2.461-.088-3.009.366z" data-color="2" class="icon2"></path><path d="M81.735 87.805c-.737.611-1.358 1.396-1.829 2.227-.247.436-.458.9-.581 1.388-.121.479-.303 1.528.48 1.498.634-.024 1.301-.531 1.78-.907 1.187-.932 3.216-2.879 3.158-4.573-.051-1.507-2.46-.087-3.008.367z" data-color="2" class="icon2"></path><path d="M93.25 87.394c-.004 0-.004-.004-.009-.004h-.004c-.349-.17-.741-.329-1.164-.488-.688.985-1.214 2.162-1.087 3.133a.217.217 0 0 0 .1.159c.206.523 1.033.164 1.693-.256.21-.133.402-.273.552-.391a12.55 12.55 0 0 0 1.34-1.204c.144-.144.288-.301.428-.462-1.002-.305-1.743-.464-1.849-.487z" data-color="2" class="icon2"></path><path d="M80.74 101.006c-1.169.968-2.701 3.102-2.496 4.693a.216.216 0 0 0 .098.159c.273.695 1.623-.154 2.249-.645 1.187-.932 3.216-2.879 3.158-4.573-.052-1.508-2.461-.088-3.009.366z" data-color="2" class="icon2"></path><path d="M74.297 125.158c-1.169.968-2.701 3.102-2.496 4.693a.22.22 0 0 0 .098.159c.273.695 1.623-.154 2.249-.645 1.187-.932 3.216-2.879 3.158-4.573-.052-1.509-2.461-.088-3.009.366z" data-color="2" class="icon2"></path><path d="M86.581 125.575c-1.169.968-2.701 3.102-2.496 4.693a.216.216 0 0 0 .098.159c.273.695 1.623-.154 2.249-.645 1.187-.932 3.216-2.879 3.158-4.573-.051-1.509-2.461-.088-3.009.366z" data-color="2" class="icon2"></path><path d="M127.085 94.531c-.877-.486-2.529.192-3.125 1.083a2.176 2.176 0 0 0-.308.721c-.057.25-.021.515-.094.754-.146.476-.571.819-.853 1.211-.647.897-.287 1.661-.59 2.698-.216.738-.454 1.511.254 2.068 1.828 1.439 3.357-2.399 3.887-3.51.554-1.161 1.351-2.466 1.393-3.799.02-.642-.209-1.029-.564-1.226z" data-color="3" class="icon3"></path><path d="M126.424 97.766a.308.308 0 0 1-.143-.035l-2.062-1.048a.32.32 0 0 1 .288-.569l2.062 1.048a.32.32 0 0 1-.145.604z" opacity=".21"></path><path d="M125.42 99.971a.313.313 0 0 1-.145-.035l-2.22-1.145a.32.32 0 0 1-.138-.43.318.318 0 0 1 .429-.138l2.22 1.145a.32.32 0 0 1-.146.603z" opacity=".21"></path><path d="M124.415 102.097a.31.31 0 0 1-.155-.041l-1.509-.847a.32.32 0 0 1 .311-.557l1.509.847a.32.32 0 0 1-.156.598z" opacity=".21"></path><path d="m66.466 113.78-.021-.001a.319.319 0 0 1-.297-.339c.003-.05.308-5.042-.883-9.9-.724-2.955-1.614-4.586-1.623-4.602a.319.319 0 1 1 .557-.309c.038.069.94 1.722 1.684 4.759 1.214 4.956.903 10.043.899 10.094a.317.317 0 0 1-.316.298z" opacity=".21"></path><path d="M50.659 114.898a.319.319 0 0 1-.124-.613c.27-.112 2.618-.634 6.275-.878 3.489-.233 8.443-1.831 8.493-1.847a.32.32 0 0 1 .196.608c-.206.067-5.079 1.638-8.646 1.876-3.541.236-5.848.741-6.075.832a.338.338 0 0 1-.119.022z" opacity=".21"></path><path d="M76.462 89.332a.318.318 0 0 1-.31-.251l-.211-.965a.319.319 0 0 1 .622-.137l.211.965a.319.319 0 0 1-.312.388z" opacity=".21"></path><path d="M77.33 93.545a.318.318 0 0 1-.31-.251l-.211-.965a.319.319 0 0 1 .622-.137l.211.965a.319.319 0 0 1-.312.388z" opacity=".21"></path><path d="M76.389 95.311c-.001 0-.001 0 0 0-.27-.044-.27-.044-1.042-3.186-.15-.611-.286-1.165-.368-1.477-.265-1.001-.634-3.482-.65-3.587a.32.32 0 0 1 .268-.363.323.323 0 0 1 .362.269c.004.025.379 2.551.635 3.517.083.315.221.872.372 1.489.22.893.533 2.172.681 2.67a41.134 41.134 0 0 0 2.03-.448c-.169-1.018-.964-5.079-1.512-7.834a.318.318 0 1 1 .624-.124c1.627 8.176 1.602 8.212 1.497 8.362-.197.281-2.854.712-2.897.712zm.044-.633z" opacity=".21"></path><path d="M66.497 83.198s4.514 6.501 6.502 6.119c1.988-.382 3.078-4.259 3.078-4.259s-2.614-.052-4.861-.5c-2.246-.449-4.719-1.36-4.719-1.36z" data-color="3" class="icon3"></path><path d="M76.077 85.058s1.154 3.561 2.305 3.529c1.107-.03 2.333-4.291 2.333-4.291s-1.004.27-2.437.487a33.01 33.01 0 0 1-2.201.275z" data-color="3" class="icon3"></path><path d="M66.497 83.198s4.514 6.501 6.502 6.119c1.988-.382 3.078-4.259 3.078-4.259s-2.614-.052-4.861-.5c-2.246-.449-4.719-1.36-4.719-1.36z" opacity=".19"></path><path d="M76.077 85.058s1.154 3.561 2.305 3.529c1.107-.03 2.333-4.291 2.333-4.291s-1.004.27-2.437.487a33.01 33.01 0 0 1-2.201.275z" opacity=".19"></path></g></g>
</svg>
</g></svg></svg>