<svg version="1.1" preserveAspectRatio="none" xmlns="http://www.w3.org/2000/svg" width="500" height="500" viewBox="0 0 500 500"><rect width="100%" height="100%" fill="#F1F1F1" fill-opacity="1"/><svg viewBox="335.7441 182.8053 390.8177 253.4153" width="333" height="215.92495657182363" x="83.5px" y="142.0375px" xmlns="http://www.w3.org/2000/svg" xmlns:xlink="http://www.w3.org/1999/xlink" preserveAspectRatio="none"><defs></defs><style>.aDFQBjvS2colors-3 {fill:#03D0C6;fill-opacity:1;}.aDFQBjvS2colors-4 {fill:#FFC019;fill-opacity:1;}.aDFQBjvS2colors-5 {fill:#FF5606;fill-opacity:1;}.aDFQBjvS2colors-6 {fill:#000C9C;fill-opacity:1;}.aDFQBjvS2colors-7 {fill:#776730;fill-opacity:1;}.companyName {fill:#03D069;fill-opacity:1;}.icon1 {fill:#03D069;fill-opacity:1;}.icon2 {fill:#776730;fill-opacity:1;}.icon3 {fill:#B6B5B5;fill-opacity:1;}.icon3-str {stroke:#B6B5B5;stroke-opacity:1;}.text {fill:#03D069;fill-opacity:1;}</style><g opacity="1" transform="rotate(0 421.2655 413.7206)">
<svg width="219.775" height="22.5" x="421.2655" y="413.7206" version="1.1" preserveAspectRatio="none" viewBox="4.2 -29.68 368 37.68">
  <g transform="matrix(1 0 0 1 0 0)" class="text"><path id="id-6izo4zJp16" d="M15.12-28Q20.56-28 23.68-25.40Q26.80-22.80 26.80-18.24L26.80-18.24Q26.80-13.68 23.68-11.08Q20.56-8.48 15.12-8.48L15.12-8.48L8.20-8.48L8.20 0L4.20 0L4.20-28L15.12-28ZM15-11.96Q18.80-11.96 20.80-13.58Q22.80-15.20 22.80-18.24L22.80-18.24Q22.80-21.28 20.80-22.90Q18.80-24.52 15-24.52L15-24.52L8.20-24.52L8.20-11.96L15-11.96Z M37.44-17.64Q38.44-19.48 40.40-20.44Q42.36-21.40 45.16-21.40L45.16-21.40L45.16-17.68Q44.84-17.72 44.28-17.72L44.28-17.72Q41.16-17.72 39.38-15.86Q37.60-14 37.60-10.56L37.60-10.56L37.60 0L33.76 0L33.76-21.20L37.44-21.20L37.44-17.64Z M59.56-21.40Q63.96-21.40 66.30-19.24Q68.64-17.08 68.64-12.80L68.64-12.80L68.64 0L65 0L65-2.80Q64.04-1.32 62.26-0.54Q60.48 0.24 58.04 0.24L58.04 0.24Q54.48 0.24 52.34-1.48Q50.20-3.20 50.20-6L50.20-6Q50.20-8.80 52.24-10.50Q54.28-12.20 58.72-12.20L58.72-12.20L64.80-12.20L64.80-12.96Q64.80-15.44 63.36-16.76Q61.92-18.08 59.12-18.08L59.12-18.08Q57.24-18.08 55.44-17.46Q53.64-16.84 52.40-15.80L52.40-15.80L50.80-18.68Q52.44-20 54.72-20.70Q57-21.40 59.56-21.40L59.56-21.40ZM58.68-2.72Q60.88-2.72 62.48-3.70Q64.08-4.68 64.80-6.48L64.80-6.48L64.80-9.44L58.88-9.44Q54.00-9.44 54.00-6.16L54.00-6.16Q54.00-4.56 55.24-3.64Q56.48-2.72 58.68-2.72L58.68-2.72Z M92.36-21.20L96.12-21.20L85.84 2.12Q84.48 5.36 82.66 6.68Q80.84 8 78.28 8L78.28 8Q76.72 8 75.26 7.50Q73.80 7 72.84 6.04L72.84 6.04L74.48 3.16Q76.12 4.72 78.28 4.72L78.28 4.72Q79.68 4.72 80.62 3.98Q81.56 3.24 82.32 1.44L82.32 1.44L83-0.04L73.64-21.20L77.64-21.20L85.04-4.24L92.36-21.20Z M108.76-21.40Q113.16-21.40 115.50-19.24Q117.84-17.08 117.84-12.80L117.84-12.80L117.84 0L114.20 0L114.20-2.80Q113.24-1.32 111.46-0.54Q109.68 0.24 107.24 0.24L107.24 0.24Q103.68 0.24 101.54-1.48Q99.40-3.20 99.40-6L99.40-6Q99.40-8.80 101.44-10.50Q103.48-12.20 107.92-12.20L107.92-12.20L114-12.20L114-12.96Q114-15.44 112.56-16.76Q111.12-18.08 108.32-18.08L108.32-18.08Q106.44-18.08 104.64-17.46Q102.84-16.84 101.60-15.80L101.60-15.80L100.00-18.68Q101.64-20 103.92-20.70Q106.20-21.40 108.76-21.40L108.76-21.40ZM107.88-2.72Q110.08-2.72 111.68-3.70Q113.28-4.68 114-6.48L114-6.48L114-9.44L108.08-9.44Q103.20-9.44 103.20-6.16L103.20-6.16Q103.20-4.56 104.44-3.64Q105.68-2.72 107.88-2.72L107.88-2.72Z M133.04 0.24Q130.44 0.24 128.04-0.46Q125.64-1.16 124.28-2.24L124.28-2.24L125.88-5.28Q127.28-4.28 129.28-3.68Q131.28-3.08 133.32-3.08L133.32-3.08Q138.36-3.08 138.36-5.96L138.36-5.96Q138.36-6.92 137.68-7.48Q137-8.04 135.98-8.30Q134.96-8.56 133.08-8.88L133.08-8.88Q130.52-9.28 128.90-9.80Q127.28-10.32 126.12-11.56Q124.96-12.80 124.96-15.04L124.96-15.04Q124.96-17.92 127.36-19.66Q129.76-21.40 133.80-21.40L133.80-21.40Q135.92-21.40 138.04-20.88Q140.16-20.36 141.52-19.48L141.52-19.48L139.88-16.44Q137.28-18.12 133.76-18.12L133.76-18.12Q131.32-18.12 130.04-17.32Q128.76-16.52 128.76-15.20L128.76-15.20Q128.76-14.16 129.48-13.56Q130.20-12.96 131.26-12.68Q132.32-12.40 134.24-12.04L134.24-12.04Q136.80-11.60 138.38-11.10Q139.96-10.60 141.08-9.40Q142.20-8.20 142.20-6.04L142.20-6.04Q142.20-3.16 139.74-1.46Q137.28 0.24 133.04 0.24L133.04 0.24Z M181.16-14.52Q183.60-13.84 185.00-12.06Q186.40-10.28 186.40-7.56L186.40-7.56Q186.40-3.92 183.66-1.96Q180.92 0 175.68 0L175.68 0L162.32 0L162.32-28L174.88-28Q179.68-28 182.30-26.08Q184.92-24.16 184.92-20.76L184.92-20.76Q184.92-18.56 183.90-16.96Q182.88-15.36 181.16-14.52L181.16-14.52ZM174.52-24.76L166.32-24.76L166.32-15.80L174.52-15.80Q177.60-15.80 179.26-16.94Q180.92-18.08 180.92-20.28L180.92-20.28Q180.92-22.48 179.26-23.62Q177.60-24.76 174.52-24.76L174.52-24.76ZM175.52-3.24Q178.92-3.24 180.64-4.36Q182.36-5.48 182.36-7.88L182.36-7.88Q182.36-12.56 175.52-12.56L175.52-12.56L166.32-12.56L166.32-3.24L175.52-3.24Z M201.76-21.40Q206.16-21.40 208.50-19.24Q210.84-17.08 210.84-12.80L210.84-12.80L210.84 0L207.20 0L207.20-2.80Q206.24-1.32 204.46-0.54Q202.68 0.24 200.24 0.24L200.24 0.24Q196.68 0.24 194.54-1.48Q192.40-3.20 192.40-6L192.40-6Q192.40-8.80 194.44-10.50Q196.48-12.20 200.92-12.20L200.92-12.20L207.00-12.20L207.00-12.96Q207.00-15.44 205.56-16.76Q204.12-18.08 201.32-18.08L201.32-18.08Q199.44-18.08 197.64-17.46Q195.84-16.84 194.60-15.80L194.60-15.80L193.00-18.68Q194.64-20 196.92-20.70Q199.20-21.40 201.76-21.40L201.76-21.40ZM200.88-2.72Q203.08-2.72 204.68-3.70Q206.28-4.68 207.00-6.48L207.00-6.48L207.00-9.44L201.08-9.44Q196.20-9.44 196.20-6.16L196.20-6.16Q196.20-4.56 197.44-3.64Q198.68-2.72 200.88-2.72L200.88-2.72Z M236.24-29.68L240.08-29.68L240.08 0L236.40 0L236.40-3.36Q235.12-1.60 233.16-0.68Q231.20 0.24 228.84 0.24L228.84 0.24Q225.76 0.24 223.32-1.12Q220.88-2.48 219.50-4.94Q218.12-7.40 218.12-10.60L218.12-10.60Q218.12-13.80 219.50-16.24Q220.88-18.68 223.32-20.04Q225.76-21.40 228.84-21.40L228.84-21.40Q231.12-21.40 233.04-20.54Q234.96-19.68 236.24-18L236.24-18L236.24-29.68ZM229.16-3.12Q231.16-3.12 232.80-4.06Q234.44-5 235.36-6.70Q236.28-8.40 236.28-10.60L236.28-10.60Q236.28-12.80 235.36-14.50Q234.44-16.20 232.80-17.12Q231.16-18.04 229.16-18.04L229.16-18.04Q227.12-18.04 225.50-17.12Q223.88-16.20 222.94-14.50Q222-12.80 222-10.60L222-10.60Q222-8.40 222.94-6.70Q223.88-5 225.50-4.06Q227.12-3.12 229.16-3.12L229.16-3.12Z M249.36 0L249.36-29.68L253.20-29.68L253.20 0L249.36 0Z M270.24-21.40Q274.64-21.40 276.98-19.24Q279.32-17.08 279.32-12.80L279.32-12.80L279.32 0L275.68 0L275.68-2.80Q274.72-1.32 272.94-0.54Q271.16 0.24 268.72 0.24L268.72 0.24Q265.16 0.24 263.02-1.48Q260.88-3.20 260.88-6L260.88-6Q260.88-8.80 262.92-10.50Q264.96-12.20 269.40-12.20L269.40-12.20L275.48-12.20L275.48-12.96Q275.48-15.44 274.04-16.76Q272.60-18.08 269.80-18.08L269.80-18.08Q267.92-18.08 266.12-17.46Q264.32-16.84 263.08-15.80L263.08-15.80L261.48-18.68Q263.12-20 265.40-20.70Q267.68-21.40 270.24-21.40L270.24-21.40ZM269.36-2.72Q271.56-2.72 273.16-3.70Q274.76-4.68 275.48-6.48L275.48-6.48L275.48-9.44L269.56-9.44Q264.68-9.44 264.68-6.16L264.68-6.16Q264.68-4.56 265.92-3.64Q267.16-2.72 269.36-2.72L269.36-2.72Z M303.04-21.20L306.80-21.20L297.52 0L293.60 0L284.32-21.20L288.32-21.20L295.60-4.20L303.04-21.20Z M345.56 0L334.84-12.44L329.72-7.24L329.72 0L325.72 0L325.72-28L329.72-28L329.72-12.36L344.92-28L349.48-28L337.52-15.40L350.24 0L345.56 0Z M363.12-21.40Q367.52-21.40 369.86-19.24Q372.20-17.08 372.20-12.80L372.20-12.80L372.20 0L368.56 0L368.56-2.80Q367.60-1.32 365.82-0.54Q364.04 0.24 361.60 0.24L361.60 0.24Q358.04 0.24 355.90-1.48Q353.76-3.20 353.76-6L353.76-6Q353.76-8.80 355.80-10.50Q357.84-12.20 362.28-12.20L362.28-12.20L368.36-12.20L368.36-12.96Q368.36-15.44 366.92-16.76Q365.48-18.08 362.68-18.08L362.68-18.08Q360.80-18.08 359.00-17.46Q357.20-16.84 355.96-15.80L355.96-15.80L354.36-18.68Q356.00-20 358.28-20.70Q360.56-21.40 363.12-21.40L363.12-21.40ZM362.24-2.72Q364.44-2.72 366.04-3.70Q367.64-4.68 368.36-6.48L368.36-6.48L368.36-9.44L362.44-9.44Q357.56-9.44 357.56-6.16L357.56-6.16Q357.56-4.56 358.80-3.64Q360.04-2.72 362.24-2.72L362.24-2.72Z"/></g>
</svg>
</g><g opacity="1" transform="rotate(0 335.7441 339.7206)">
<svg width="390.8177" height="50" x="335.7441" y="339.7206" version="1.1" preserveAspectRatio="none" viewBox="3.32 -31.48 248.56 31.8">
  <g transform="matrix(1 0 0 1 0 0)" class="companyName"><path id="id-D6z1nYkh10" d="M15.44-28Q19.16-28 21.90-26.76Q24.64-25.52 26.12-23.24Q27.60-20.96 27.60-17.84L27.60-17.84Q27.60-14.76 26.12-12.46Q24.64-10.16 21.90-8.94Q19.16-7.72 15.44-7.72L15.44-7.72L9.80-7.72L9.80 0L3.32 0L3.32-28L15.44-28ZM15.08-13Q18-13 19.52-14.26Q21.04-15.52 21.04-17.84L21.04-17.84Q21.04-20.20 19.52-21.46Q18-22.72 15.08-22.72L15.08-22.72L9.80-22.72L9.80-13L15.08-13Z M44.32-21.84Q49.32-21.84 52-19.46Q54.68-17.08 54.68-12.28L54.68-12.28L54.68 0L48.84 0L48.84-2.68Q47.08 0.32 42.28 0.32L42.28 0.32Q39.80 0.32 37.98-0.52Q36.16-1.36 35.20-2.84Q34.24-4.32 34.24-6.20L34.24-6.20Q34.24-9.20 36.50-10.92Q38.76-12.64 43.48-12.64L43.48-12.64L48.44-12.64Q48.44-14.68 47.20-15.78Q45.96-16.88 43.48-16.88L43.48-16.88Q41.76-16.88 40.10-16.34Q38.44-15.80 37.28-14.88L37.28-14.88L35.04-19.24Q36.80-20.48 39.26-21.16Q41.72-21.84 44.32-21.84L44.32-21.84ZM43.84-3.88Q45.44-3.88 46.68-4.62Q47.92-5.36 48.44-6.80L48.44-6.80L48.44-9L44.16-9Q40.32-9 40.32-6.48L40.32-6.48Q40.32-5.28 41.26-4.58Q42.20-3.88 43.84-3.88L43.84-3.88Z M70.36-18.68Q71.48-20.24 73.38-21.04Q75.28-21.84 77.76-21.84L77.76-21.84L77.76-16.08Q76.72-16.16 76.36-16.16L76.36-16.16Q73.68-16.16 72.16-14.66Q70.64-13.16 70.64-10.16L70.64-10.16L70.64 0L64.40 0L64.40-21.52L70.36-21.52L70.36-18.68Z M85.56 0L85.56-21.52L91.80-21.52L91.80 0L85.56 0ZM88.68-24.52Q86.96-24.52 85.88-25.52Q84.80-26.52 84.80-28L84.80-28Q84.80-29.48 85.88-30.48Q86.96-31.48 88.68-31.48L88.68-31.48Q90.40-31.48 91.48-30.52Q92.56-29.56 92.56-28.12L92.56-28.12Q92.56-26.56 91.48-25.54Q90.40-24.52 88.68-24.52L88.68-24.52Z M117.04-21.52L123.04-21.52L113.96 0L107.52 0L98.48-21.52L104.92-21.52L110.88-6.88L117.04-21.52Z M137.64-21.84Q142.64-21.84 145.32-19.46Q148-17.08 148-12.28L148-12.28L148 0L142.16 0L142.16-2.68Q140.40 0.32 135.60 0.32L135.60 0.32Q133.12 0.32 131.30-0.52Q129.48-1.36 128.52-2.84Q127.56-4.32 127.56-6.20L127.56-6.20Q127.56-9.20 129.82-10.92Q132.08-12.64 136.80-12.64L136.80-12.64L141.76-12.64Q141.76-14.68 140.52-15.78Q139.28-16.88 136.80-16.88L136.80-16.88Q135.08-16.88 133.42-16.34Q131.76-15.80 130.60-14.88L130.60-14.88L128.36-19.24Q130.12-20.48 132.58-21.16Q135.04-21.84 137.64-21.84L137.64-21.84ZM137.16-3.88Q138.76-3.88 140-4.62Q141.24-5.36 141.76-6.80L141.76-6.80L141.76-9L137.48-9Q133.64-9 133.64-6.48L133.64-6.48Q133.64-5.28 134.58-4.58Q135.52-3.88 137.16-3.88L137.16-3.88Z M163.68-18.68Q164.80-20.24 166.70-21.04Q168.60-21.84 171.08-21.84L171.08-21.84L171.08-16.08Q170.04-16.16 169.68-16.16L169.68-16.16Q167-16.16 165.48-14.66Q163.96-13.16 163.96-10.16L163.96-10.16L163.96 0L157.72 0L157.72-21.52L163.68-21.52L163.68-18.68Z M191.84-5.44L193.52-1.04Q192.60-0.36 191.26-0.02Q189.92 0.32 188.44 0.32L188.44 0.32Q184.60 0.32 182.50-1.64Q180.40-3.60 180.40-7.40L180.40-7.40L180.40-16.24L177.08-16.24L177.08-21.04L180.40-21.04L180.40-26.28L186.64-26.28L186.64-21.04L192.00-21.04L192.00-16.24L186.64-16.24L186.64-7.48Q186.64-6.12 187.34-5.38Q188.04-4.64 189.32-4.64L189.32-4.64Q190.80-4.64 191.84-5.44L191.84-5.44Z M209.80-21.84Q214.80-21.84 217.48-19.46Q220.16-17.08 220.16-12.28L220.16-12.28L220.16 0L214.32 0L214.32-2.68Q212.56 0.32 207.76 0.32L207.76 0.32Q205.28 0.32 203.46-0.52Q201.64-1.36 200.68-2.84Q199.72-4.32 199.72-6.20L199.72-6.20Q199.72-9.20 201.98-10.92Q204.24-12.64 208.96-12.64L208.96-12.64L213.92-12.64Q213.92-14.68 212.68-15.78Q211.44-16.88 208.96-16.88L208.96-16.88Q207.24-16.88 205.58-16.34Q203.92-15.80 202.76-14.88L202.76-14.88L200.52-19.24Q202.28-20.48 204.74-21.16Q207.20-21.84 209.80-21.84L209.80-21.84ZM209.32-3.88Q210.92-3.88 212.16-4.62Q213.40-5.36 213.92-6.80L213.92-6.80L213.92-9L209.64-9Q205.80-9 205.80-6.48L205.80-6.48Q205.80-5.28 206.74-4.58Q207.68-3.88 209.32-3.88L209.32-3.88Z M242.96-21.84Q246.96-21.84 249.42-19.44Q251.88-17.04 251.88-12.32L251.88-12.32L251.88 0L245.64 0L245.64-11.36Q245.64-13.92 244.52-15.18Q243.40-16.44 241.28-16.44L241.28-16.44Q238.92-16.44 237.52-14.98Q236.12-13.52 236.12-10.64L236.12-10.64L236.12 0L229.88 0L229.88-21.52L235.84-21.52L235.84-19Q237.08-20.36 238.92-21.10Q240.76-21.84 242.96-21.84L242.96-21.84Z"/></g>
</svg>
</g><g opacity="1" transform="rotate(0 452.9894 182.8053)">
<svg width="156.3271" height="116.9153" x="452.9894" y="182.8053" version="1.1" preserveAspectRatio="none" viewBox="2.1442670822143555 14.1993408203125 95.72220611572266 71.58966064453125">
  <g transform="matrix(1 0 0 1 0 0)" class="icon1"><path d="m29.648 75.148c-0.75 0-1.3711-0.60938-1.3711-1.3711 0-0.41016 0.19141-0.80078 0.51172-1.0586 4.8906-3.9492 11.148-5.7891 17.398-5.0898l15.859 1.7305c1.6406 0.17969 3.2891-0.30078 4.5781-1.3281l26.738-21.469c2-1.6016 2.3203-4.5312 0.71094-6.5195-1.6016-1.9883-4.5-2.3086-6.4883-0.73047l-18.598 14.688c-0.55859 0.5-1.4297 0.44922-1.9297-0.10938-0.26172-0.30078-0.37891-0.69141-0.32812-1.0781v-0.019531c0.050781-0.35156 0.23047-0.67188 0.51172-0.89062l18.66-14.75c3.1797-2.5391 7.8203-2.0117 10.359 1.1719 2.5391 3.1797 2.0117 7.8203-1.1719 10.359l-26.75 21.477c-1.8594 1.4805-4.2305 2.1719-6.5898 1.9102l-15.852-1.7305c-5.5195-0.62109-11.07 1-15.391 4.5-0.23828 0.19922-0.53906 0.30859-0.85937 0.30859zm33.68-17.668c-0.23828 0-0.48828-0.011719-0.73047-0.039063l-16.172-1.7617c-0.75-0.089844-1.2812-0.78125-1.1914-1.5312 0.089844-0.73047 0.75-1.2617 1.4805-1.1914l16.18 1.7617c1.6289 0.17188 3.1992-0.71094 3.8906-2.1992l0.03125-0.089843c0.14844-0.35156 0.25-0.71875 0.28906-1.0898 0.21875-2.1016-1.2891-3.9805-3.3906-4.2109l-26.148-2.8516c-2.8516-0.30859-5.7109 0.51953-7.9414 2.3086l-10.57 8.4805c-0.58984 0.46875-1.4492 0.37891-1.9219-0.21094-0.46875-0.58984-0.37891-1.4492 0.21094-1.9219l10.57-8.4805c2.8008-2.25 6.3789-3.2891 9.9414-2.8984l26.148 2.8594c3.5898 0.37109 6.1914 3.5781 5.8203 7.1719-0.058594 0.62109-0.21875 1.2383-0.46094 1.8203-0.011719 0.039062-0.03125 0.089844-0.050781 0.12891-1.0039 2.3945-3.3711 3.9453-5.9844 3.9453zm-40.34 28.309c-0.42188 0-0.82031-0.19922-1.0781-0.53125l-19.48-25.168c-0.46094-0.60156-0.35156-1.4492 0.23828-1.9102l12.332-9.5508c0.60156-0.46094 1.4492-0.35938 1.9219 0.23828 0.039063 0.050781 0.078125 0.10937 0.10938 0.17187l15.641 28.148c0.32812 0.58984 0.17969 1.3281-0.35938 1.7383l-8.4805 6.5586c-0.24219 0.20703-0.53125 0.30469-0.84375 0.30469zm-17.566-26.289 17.809 23 6.4688-5.0117-14.301-25.719zm37.52-14.641c-0.32812 0-0.66016-0.12109-0.89844-0.35156-5.7109-4.5312-9.75-10.82-11.5-17.898-0.58984-2.5-0.87891-5.0703-0.85938-7.6406l-0.019532-3.3984c0-0.75 0.60938-1.3711 1.3711-1.3711h63.359c0.75 0 1.3711 0.60938 1.3711 1.3711l-0.019531 3.3906c0.019531 2.6797-0.30078 5.3516-0.94141 7.9414-1.0391 4.0117-2.8203 7.7891-5.2695 11.141-0.42188 0.62891-1.2695 0.78906-1.8984 0.37109-0.37109-0.25-0.60156-0.66016-0.60156-1.1094 0-0.28906 0.089844-0.57813 0.26172-0.82031 2.2617-3.0781 3.9102-6.5586 4.8711-10.262 0.57812-2.3789 0.87109-4.8281 0.85156-7.2812l0.011719-2.0195h-60.633l0.011718 2.0195c-0.019531 2.3516 0.25 4.6992 0.78125 7 1.6094 6.5117 5.3398 12.301 10.602 16.461 0.039062 0.03125 0.078125 0.070312 0.10938 0.10156 0.53906 0.53125 0.55078 1.3906 0.019531 1.9297-0.25 0.27734-0.60156 0.42578-0.98047 0.42578zm30.969 4.8906h-0.019531c-0.75 0-1.3594-0.62109-1.3594-1.3711s0.62109-1.3594 1.3711-1.3594 1.3594 0.62109 1.3594 1.3711-0.60156 1.3477-1.3516 1.3594zm20.129-24.672h-62.66c-0.75 0-1.3711-0.60938-1.3711-1.3711s0.60938-1.3711 1.3711-1.3711h62.66c0.75 0 1.3711 0.60937 1.3711 1.3711s-0.62109 1.3711-1.3711 1.3711z"></path></g>
</svg>
</g></svg></svg>