<svg version="1.1" preserveAspectRatio="none" xmlns="http://www.w3.org/2000/svg" width="500" height="500" viewBox="0 0 500 500"><rect width="100%" height="100%" fill="#F1F1F1" fill-opacity="1"/><svg viewBox="100.8852 149.3718 391.4306 73.9843" width="333" height="62.94033195156433" x="83.5px" y="218.5298px" xmlns="http://www.w3.org/2000/svg" xmlns:xlink="http://www.w3.org/1999/xlink" preserveAspectRatio="none"><defs></defs><style>.background {fill:#F1F1F1;fill-opacity:1;}.companyName {fill:#03D069;fill-opacity:1;}.icon3 {fill:#B6B5B5;fill-opacity:1;}.icon3-str {stroke:#B6B5B5;stroke-opacity:1;}.shapeStroke-str {stroke:#03D069;stroke-opacity:1;}</style><g opacity="1" transform="rotate(0 100.8852 150.3718)">
<svg width="391.4306" height="38" x="100.8852" y="150.3718" version="1.1" preserveAspectRatio="none" viewBox="0 0 391.4306 38">
  <defs><rect x="0" y="0" width="391.4306" height="38" rx="0px" ry="0px" id="id-MGa_3CcrI1732351911847"></rect></defs><use class="icon3 shapeStroke-str" style="stroke-width:0;" xlink:href="#id-MGa_3CcrI1732351911847"></use>
</svg>
</g><g opacity="1" transform="rotate(0 100.8852 149.3718)">
<svg width="391.4306" height="40" x="100.8852" y="149.3718" version="1.1" preserveAspectRatio="none" viewBox="2.8 -28 274 28">
  <g transform="matrix(1 0 0 1 0 0)" class="background"><path id="id-D6z1nYkh10" d="M15.60-28Q19.40-28 22.20-26.74Q25-25.48 26.52-23.14Q28.04-20.80 28.04-17.64L28.04-17.64Q28.04-14.48 26.52-12.16Q25-9.84 22.20-8.58Q19.40-7.32 15.60-7.32L15.60-7.32L10.72-7.32L10.72 0L2.80 0L2.80-28L15.60-28ZM15.12-13.56Q17.56-13.56 18.80-14.62Q20.04-15.68 20.04-17.64L20.04-17.64Q20.04-19.60 18.80-20.68Q17.56-21.76 15.12-21.76L15.12-21.76L10.72-21.76L10.72-13.56L15.12-13.56Z M51.44 0L49.24-5.44L37.40-5.44L35.20 0L27.12 0L39.48-28L47.28-28L59.68 0L51.44 0ZM39.72-11.28L46.92-11.28L43.32-20.24L39.72-11.28Z M79.24 0L74.16-7.44L69.84-7.44L69.84 0L61.92 0L61.92-28L74.72-28Q78.52-28 81.32-26.74Q84.12-25.48 85.64-23.14Q87.16-20.80 87.16-17.64L87.16-17.64Q87.16-14.60 85.74-12.34Q84.32-10.08 81.68-8.80L81.68-8.80L87.72 0L79.24 0ZM79.16-17.64Q79.16-19.60 77.92-20.68Q76.68-21.76 74.24-21.76L74.24-21.76L69.84-21.76L69.84-13.56L74.24-13.56Q76.68-13.56 77.92-14.62Q79.16-15.68 79.16-17.64L79.16-17.64Z M91.52 0L91.52-28L99.44-28L99.44 0L91.52 0Z M125.56-28L133.40-28L121.40 0L113.60 0L101.64-28L110.20-28L117.80-9.76L125.56-28Z M155.04 0L152.84-5.44L141-5.44L138.80 0L130.72 0L143.08-28L150.88-28L163.28 0L155.04 0ZM143.32-11.28L150.52-11.28L146.92-20.24L143.32-11.28Z M182.84 0L177.76-7.44L173.44-7.44L173.44 0L165.52 0L165.52-28L178.32-28Q182.12-28 184.92-26.74Q187.72-25.48 189.24-23.14Q190.76-20.80 190.76-17.64L190.76-17.64Q190.76-14.60 189.34-12.34Q187.92-10.08 185.28-8.80L185.28-8.80L191.32 0L182.84 0ZM182.76-17.64Q182.76-19.60 181.52-20.68Q180.28-21.76 177.84-21.76L177.84-21.76L173.44-21.76L173.44-13.56L177.84-13.56Q180.28-13.56 181.52-14.62Q182.76-15.68 182.76-17.64L182.76-17.64Z M200.68 0L200.68-21.72L192.08-21.72L192.08-28L217.16-28L217.16-21.72L208.60-21.72L208.60 0L200.68 0Z M239.68 0L237.48-5.44L225.64-5.44L223.44 0L215.36 0L227.72-28L235.52-28L247.92 0L239.68 0ZM227.96-11.28L235.16-11.28L231.56-20.24L227.96-11.28Z M269.04-28L276.80-28L276.80 0L270.28 0L257.92-14.92L257.92 0L250.16 0L250.16-28L256.68-28L269.04-13.08L269.04-28Z"/></g>
</svg>
</g><g opacity="1" transform="rotate(0 100.8852 204.3718)">
<svg width="391.4306" height="18.9843" x="100.8852" y="204.3718" version="1.1" preserveAspectRatio="none" viewBox="4.2 -28.32 590.52 28.64">
  <g transform="matrix(1 0 0 1 0 0)" class="companyName"><path id="id-6izo4zJp16" d="M15.12-28Q20.56-28 23.68-25.40Q26.80-22.80 26.80-18.24L26.80-18.24Q26.80-13.68 23.68-11.08Q20.56-8.48 15.12-8.48L15.12-8.48L8.20-8.48L8.20 0L4.20 0L4.20-28L15.12-28ZM15-11.96Q18.80-11.96 20.80-13.58Q22.80-15.20 22.80-18.24L22.80-18.24Q22.80-21.28 20.80-22.90Q18.80-24.52 15-24.52L15-24.52L8.20-24.52L8.20-11.96L15-11.96Z M67.76 0L63.40 0L57.36-8.60Q56.24-8.52 55.60-8.52L55.60-8.52L48.68-8.52L48.68 0L44.68 0L44.68-28L55.60-28Q61.04-28 64.16-25.40Q67.28-22.80 67.28-18.24L67.28-18.24Q67.28-15 65.68-12.72Q64.08-10.44 61.12-9.40L61.12-9.40L67.76 0ZM55.48-11.92Q59.28-11.92 61.28-13.56Q63.28-15.20 63.28-18.24L63.28-18.24Q63.28-21.28 61.28-22.90Q59.28-24.52 55.48-24.52L55.48-24.52L48.68-24.52L48.68-11.92L55.48-11.92Z M106.68 0L103.60-7L88.72-7L85.64 0L81.52 0L94.20-28L98.16-28L110.88 0L106.68 0ZM90.12-10.20L102.20-10.20L96.16-23.92L90.12-10.20Z M147.20-28L136.08-9.68L136.08 0L132.12 0L132.12-9.76L121-28L125.28-28L134.24-13.24L143.24-28L147.20-28Z M182.48 0L179.40-7L164.52-7L161.44 0L157.32 0L170-28L173.96-28L186.68 0L182.48 0ZM165.92-10.20L178-10.20L171.96-23.92L165.92-10.20Z M211 0.32Q207.84 0.32 204.90-0.66Q201.96-1.64 200.28-3.20L200.28-3.20L201.76-6.32Q203.36-4.88 205.86-3.98Q208.36-3.08 211-3.08L211-3.08Q214.48-3.08 216.20-4.26Q217.92-5.44 217.92-7.40L217.92-7.40Q217.92-8.84 216.98-9.74Q216.04-10.64 214.66-11.12Q213.28-11.60 210.76-12.20L210.76-12.20Q207.60-12.96 205.66-13.72Q203.72-14.48 202.34-16.06Q200.96-17.64 200.96-20.32L200.96-20.32Q200.96-22.56 202.14-24.36Q203.32-26.16 205.72-27.24Q208.12-28.32 211.68-28.32L211.68-28.32Q214.16-28.32 216.56-27.68Q218.96-27.04 220.68-25.84L220.68-25.84L219.36-22.64Q217.60-23.76 215.60-24.34Q213.60-24.92 211.68-24.92L211.68-24.92Q208.28-24.92 206.58-23.68Q204.88-22.44 204.88-20.48L204.88-20.48Q204.88-19.04 205.84-18.14Q206.80-17.24 208.22-16.74Q209.64-16.24 212.08-15.68L212.08-15.68Q215.24-14.92 217.16-14.16Q219.08-13.40 220.46-11.84Q221.84-10.28 221.84-7.64L221.84-7.64Q221.84-5.44 220.64-3.62Q219.44-1.80 217-0.74Q214.56 0.32 211 0.32L211 0.32Z M281.28-14.52Q283.72-13.84 285.12-12.06Q286.52-10.28 286.52-7.56L286.52-7.56Q286.52-3.92 283.78-1.96Q281.04 0 275.80 0L275.80 0L262.44 0L262.44-28L275-28Q279.80-28 282.42-26.08Q285.04-24.16 285.04-20.76L285.04-20.76Q285.04-18.56 284.02-16.96Q283-15.36 281.28-14.52L281.28-14.52ZM274.64-24.76L266.44-24.76L266.44-15.80L274.64-15.80Q277.72-15.80 279.38-16.94Q281.04-18.08 281.04-20.28L281.04-20.28Q281.04-22.48 279.38-23.62Q277.72-24.76 274.64-24.76L274.64-24.76ZM275.64-3.24Q279.04-3.24 280.76-4.36Q282.48-5.48 282.48-7.88L282.48-7.88Q282.48-12.56 275.64-12.56L275.64-12.56L266.44-12.56L266.44-3.24L275.64-3.24Z M325.64 0L322.56-7L307.68-7L304.60 0L300.48 0L313.16-28L317.12-28L329.84 0L325.64 0ZM309.08-10.20L321.16-10.20L315.12-23.92L309.08-10.20Z M346.00 0L346.00-28L357.80-28Q362.24-28 365.68-26.24Q369.12-24.48 371.02-21.30Q372.92-18.12 372.92-14L372.92-14Q372.92-9.88 371.02-6.70Q369.12-3.52 365.68-1.76Q362.24 0 357.80 0L357.80 0L346.00 0ZM350.00-3.48L357.56-3.48Q360.96-3.48 363.54-4.80Q366.12-6.12 367.52-8.50Q368.92-10.88 368.92-14L368.92-14Q368.92-17.12 367.52-19.50Q366.12-21.88 363.54-23.20Q360.96-24.52 357.56-24.52L357.56-24.52L350.00-24.52L350.00-3.48Z M391.04 0L391.04-28L395.04-28L395.04-3.48L410.20-3.48L410.20 0L391.04 0Z M447.84 0L444.76-7L429.88-7L426.80 0L422.68 0L435.36-28L439.32-28L452.04 0L447.84 0ZM431.28-10.20L443.36-10.20L437.32-23.92L431.28-10.20Z M487.04-28L491.04-28L478.76 0L474.80 0L462.48-28L466.80-28L476.88-5L487.04-28Z M549.80 0L539.08-12.44L533.96-7.24L533.96 0L529.96 0L529.96-28L533.96-28L533.96-12.36L549.16-28L553.72-28L541.76-15.40L554.48 0L549.80 0Z M590.52 0L587.44-7L572.56-7L569.48 0L565.36 0L578.04-28L582-28L594.72 0L590.52 0ZM573.96-10.20L586.04-10.20L580-23.92L573.96-10.20Z"/></g>
</svg>
</g></svg></svg>