<svg version="1.1" preserveAspectRatio="none" xmlns="http://www.w3.org/2000/svg" width="500" height="500" viewBox="0 0 500 500"><rect width="100%" height="100%" fill="#E1E1E1" fill-opacity="1"/><svg viewBox="53.4132 118.6825 393.445 273.0114" width="333" height="231.0686276353747" x="83.5px" y="134.4657px" xmlns="http://www.w3.org/2000/svg" xmlns:xlink="http://www.w3.org/1999/xlink" preserveAspectRatio="none"><defs></defs><style>.companyName {fill:#03D069;fill-opacity:1;}.icon3-str {stroke:#B6B5B5;stroke-opacity:1;}.shape {fill:#F1F1F1;fill-opacity:1;}.shapeStroke-str {stroke:#03D069;stroke-opacity:1;}.text {fill:#03D069;fill-opacity:1;}</style><g opacity="1" transform="rotate(0 113.6231 118.6825)">
<svg width="273.0252" height="273.0114" x="113.6231" y="118.6825" version="1.1" preserveAspectRatio="none" viewBox="0 0 273.0252 273.0114">
  <defs><rect x="0" y="0" width="273.0252" height="273.0114" rx="0%" ry="0%" id="id-aPBVVfuK1732351782572"></rect></defs><use class="shape shapeStroke-str" style="stroke-width:0;" xlink:href="#id-aPBVVfuK1732351782572"></use>
</svg>
</g><g opacity="1" transform="rotate(0 153.6231 295.1882)">
<svg width="193.0252" height="17.6" x="153.6231" y="295.1882" version="1.1" preserveAspectRatio="none" viewBox="4.32 -29.2 414.56 37.8">
  <g transform="matrix(1 0 0 1 0 0)" class="text"><path id="id-6izo4zJp16" d="M13.64-26.40Q17.64-26.40 20.08-24.22Q22.52-22.04 22.52-18.36L22.52-18.36Q22.52-14.68 20.08-12.50Q17.64-10.32 13.64-10.32L13.64-10.32L7.52-10.32L7.52 0L4.32 0L4.32-26.40L13.64-26.40ZM13.16-13.32Q16.24-13.32 17.70-14.58Q19.16-15.84 19.16-18.36L19.16-18.36Q19.16-20.88 17.70-22.14Q16.24-23.40 13.16-23.40L13.16-23.40L7.52-23.40L7.52-13.32L13.16-13.32Z M43.56-20.40Q45-20.40 45.76-20L45.76-20L45.12-16.88Q44.16-17.40 42.60-17.40L42.60-17.40Q41.32-17.40 40.10-16.66Q38.88-15.92 38.10-14.42Q37.32-12.92 37.32-10.80L37.32-10.80L37.32 0L34.12 0L34.12-20L36.72-20L37.16-16.72Q38.84-20.40 43.56-20.40L43.56-20.40Z M72.28-2.32Q73.08-2.32 73.88-2.52L73.88-2.52L73.68 0Q72.56 0.40 71.28 0.40L71.28 0.40Q69.72 0.40 68.82-0.28Q67.92-0.96 67.68-2.56L67.68-2.56Q66.76-1.16 64.98-0.38Q63.20 0.40 61.24 0.40L61.24 0.40Q58.28 0.40 56.36-0.98Q54.44-2.36 54.44-4.96L54.44-4.96Q54.44-7.24 56.44-8.90Q58.44-10.56 62.24-11.20L62.24-11.20L67.56-12.08L67.56-13.20Q67.56-15.20 66.32-16.40Q65.08-17.60 62.88-17.60L62.88-17.60Q60.88-17.60 59.42-16.64Q57.96-15.68 57.16-13.80L57.16-13.80L54.80-15.52Q55.60-17.76 57.78-19.08Q59.96-20.40 62.88-20.40L62.88-20.40Q66.44-20.40 68.60-18.68Q70.76-16.96 70.76-13.60L70.76-13.60L70.76-3.76Q70.76-3.04 71.12-2.68Q71.48-2.32 72.28-2.32L72.28-2.32ZM61.40-2.40Q63.92-2.40 65.74-3.60Q67.56-4.80 67.56-6.72L67.56-6.72L67.56-9.48L63.08-8.64Q60.40-8.16 59.08-7.26Q57.76-6.36 57.76-4.96L57.76-4.96Q57.76-3.72 58.72-3.06Q59.68-2.40 61.40-2.40L61.40-2.40Z M100.36-20L90.96 3.36Q89.80 6.24 88.36 7.42Q86.92 8.60 84.64 8.60L84.64 8.60Q83.12 8.60 82.10 8.20Q81.08 7.80 80.24 6.92L80.24 6.92L81.36 4.20Q82.52 5.80 84.60 5.80L84.60 5.80Q85.76 5.80 86.66 5.10Q87.56 4.40 88.24 2.56L88.24 2.56L89.28-0.04L80.92-20L84.56-20L89.56-6.96L90.80-3.40L92.24-7.36L96.92-20L100.36-20Z M126.64-2.32Q127.44-2.32 128.24-2.52L128.24-2.52L128.04 0Q126.92 0.40 125.64 0.40L125.64 0.40Q124.08 0.40 123.18-0.28Q122.28-0.96 122.04-2.56L122.04-2.56Q121.12-1.16 119.34-0.38Q117.56 0.40 115.60 0.40L115.60 0.40Q112.64 0.40 110.72-0.98Q108.80-2.36 108.80-4.96L108.80-4.96Q108.80-7.24 110.80-8.90Q112.80-10.56 116.60-11.20L116.60-11.20L121.92-12.08L121.92-13.20Q121.92-15.20 120.68-16.40Q119.44-17.60 117.24-17.60L117.24-17.60Q115.24-17.60 113.78-16.64Q112.32-15.68 111.52-13.80L111.52-13.80L109.16-15.52Q109.96-17.76 112.14-19.08Q114.32-20.40 117.24-20.40L117.24-20.40Q120.80-20.40 122.96-18.68Q125.12-16.96 125.12-13.60L125.12-13.60L125.12-3.76Q125.12-3.04 125.48-2.68Q125.84-2.32 126.64-2.32L126.64-2.32ZM115.76-2.40Q118.28-2.40 120.10-3.60Q121.92-4.80 121.92-6.72L121.92-6.72L121.92-9.48L117.44-8.64Q114.76-8.16 113.44-7.26Q112.12-6.36 112.12-4.96L112.12-4.96Q112.12-3.72 113.08-3.06Q114.04-2.40 115.76-2.40L115.76-2.40Z M145.68 0.40Q142.80 0.40 140.48-0.74Q138.16-1.88 137.08-4.12L137.08-4.12L139.68-5.92Q140.36-4.16 142.04-3.28Q143.72-2.40 146.00-2.40L146.00-2.40Q148.36-2.40 149.60-3.24Q150.84-4.08 150.84-5.36L150.84-5.36Q150.84-6.52 149.68-7.22Q148.52-7.92 145.60-8.44L145.60-8.44Q142.72-8.96 141.04-9.70Q139.36-10.44 138.60-11.58Q137.84-12.72 137.84-14.40L137.84-14.40Q137.84-16.04 138.80-17.40Q139.76-18.76 141.56-19.58Q143.36-20.40 145.72-20.40L145.72-20.40Q148.92-20.40 150.86-19.22Q152.80-18.04 153.64-15.60L153.64-15.60L150.92-14Q150.28-15.92 148.98-16.76Q147.68-17.60 145.72-17.60L145.72-17.60Q143.76-17.60 142.40-16.72Q141.04-15.84 141.04-14.68L141.04-14.68Q141.04-13.36 142.22-12.64Q143.40-11.92 146.44-11.40L146.44-11.40Q150.60-10.72 152.32-9.36Q154.04-8 154.04-5.52L154.04-5.52Q154.04-3.80 153.02-2.46Q152.00-1.12 150.10-0.36Q148.20 0.40 145.68 0.40L145.68 0.40Z M186.20 0L186.20-26.40L195.60-26.40Q200.16-26.40 202.38-24.50Q204.60-22.60 204.60-19.12L204.60-19.12Q204.60-17.04 203.42-15.44Q202.24-13.84 200.16-13.44L200.16-13.44L200.16-13.40Q202.48-12.96 203.88-11.28Q205.28-9.60 205.28-7.40L205.28-7.40Q205.28-4 202.72-2Q200.16 0 195.56 0L195.56 0L186.20 0ZM189.40-14.80L195.64-14.80Q198.48-14.80 199.86-15.86Q201.24-16.92 201.24-19.12L201.24-19.12Q201.24-23.40 195.64-23.40L195.64-23.40L189.40-23.40L189.40-14.80ZM189.40-3L196.32-3Q199.12-3 200.52-4.14Q201.92-5.28 201.92-7.40L201.92-7.40Q201.92-9.52 200.52-10.66Q199.12-11.80 196.32-11.80L196.32-11.80L189.40-11.80L189.40-3Z M234.12-2.32Q234.92-2.32 235.72-2.52L235.72-2.52L235.52 0Q234.40 0.40 233.12 0.40L233.12 0.40Q231.56 0.40 230.66-0.28Q229.76-0.96 229.52-2.56L229.52-2.56Q228.60-1.16 226.82-0.38Q225.04 0.40 223.08 0.40L223.08 0.40Q220.12 0.40 218.20-0.98Q216.28-2.36 216.28-4.96L216.28-4.96Q216.28-7.24 218.28-8.90Q220.28-10.56 224.08-11.20L224.08-11.20L229.40-12.08L229.40-13.20Q229.40-15.20 228.16-16.40Q226.92-17.60 224.72-17.60L224.72-17.60Q222.72-17.60 221.26-16.64Q219.80-15.68 219.00-13.80L219.00-13.80L216.64-15.52Q217.44-17.76 219.62-19.08Q221.80-20.40 224.72-20.40L224.72-20.40Q228.28-20.40 230.44-18.68Q232.60-16.96 232.60-13.60L232.60-13.60L232.60-3.76Q232.60-3.04 232.96-2.68Q233.32-2.32 234.12-2.32L234.12-2.32ZM223.24-2.40Q225.76-2.40 227.58-3.60Q229.40-4.80 229.40-6.72L229.40-6.72L229.40-9.48L224.92-8.64Q222.24-8.16 220.92-7.26Q219.60-6.36 219.60-4.96L219.60-4.96Q219.60-3.72 220.56-3.06Q221.52-2.40 223.24-2.40L223.24-2.40Z M260.92-29.20L264.12-29.20L264.12 0L261.32 0L261.12-3.48Q260.24-1.72 258.42-0.66Q256.60 0.40 254.28 0.40L254.28 0.40Q250.08 0.40 247.62-2.38Q245.16-5.16 245.16-10L245.16-10Q245.16-14.84 247.62-17.62Q250.08-20.40 254.28-20.40L254.28-20.40Q256.48-20.40 258.22-19.44Q259.96-18.48 260.92-16.88L260.92-16.88L260.92-29.20ZM254.64-2.40Q257.52-2.40 259.22-4.40Q260.92-6.40 260.92-9.76L260.92-9.76L260.92-10.24Q260.92-13.60 259.22-15.60Q257.52-17.60 254.64-17.60L254.64-17.60Q251.72-17.60 250.04-15.54Q248.36-13.48 248.36-10L248.36-10Q248.36-6.52 250.04-4.46Q251.72-2.40 254.64-2.40L254.64-2.40Z M280.60-29.20L280.60-5.36Q280.60-3.84 281.06-3.26Q281.52-2.68 282.76-2.68L282.76-2.68Q283.60-2.68 284.22-2.80Q284.84-2.92 285.68-3.24L285.68-3.24L285.16-0.16Q283.84 0.40 282.20 0.40L282.20 0.40Q279.76 0.40 278.58-0.92Q277.40-2.24 277.40-4.96L277.40-4.96L277.40-29.20L280.60-29.20Z M312.20-2.32Q313.00-2.32 313.80-2.52L313.80-2.52L313.60 0Q312.48 0.40 311.20 0.40L311.20 0.40Q309.64 0.40 308.74-0.28Q307.84-0.96 307.60-2.56L307.60-2.56Q306.68-1.16 304.90-0.38Q303.12 0.40 301.16 0.40L301.16 0.40Q298.20 0.40 296.28-0.98Q294.36-2.36 294.36-4.96L294.36-4.96Q294.36-7.24 296.36-8.90Q298.36-10.56 302.16-11.20L302.16-11.20L307.48-12.08L307.48-13.20Q307.48-15.20 306.24-16.40Q305.00-17.60 302.80-17.60L302.80-17.60Q300.80-17.60 299.34-16.64Q297.88-15.68 297.08-13.80L297.08-13.80L294.72-15.52Q295.52-17.76 297.70-19.08Q299.88-20.40 302.80-20.40L302.80-20.40Q306.36-20.40 308.52-18.68Q310.68-16.96 310.68-13.60L310.68-13.60L310.68-3.76Q310.68-3.04 311.04-2.68Q311.40-2.32 312.20-2.32L312.20-2.32ZM301.32-2.40Q303.84-2.40 305.66-3.60Q307.48-4.80 307.48-6.72L307.48-6.72L307.48-9.48L303.00-8.64Q300.32-8.16 299.00-7.26Q297.68-6.36 297.68-4.96L297.68-4.96Q297.68-3.72 298.64-3.06Q299.60-2.40 301.32-2.40L301.32-2.40Z M337-20L340.36-20L332.04 0L328.84 0L320.52-20L324.16-20L330.48-3.24L337-20Z M386.76 0L377.72-13.28L373-8.48L373 0L369.80 0L369.80-26.40L373-26.40L373-12.80L386.28-26.40L390.48-26.40L379.96-15.64L390.60 0L386.76 0Z M417.28-2.32Q418.08-2.32 418.88-2.52L418.88-2.52L418.68 0Q417.56 0.40 416.28 0.40L416.28 0.40Q414.72 0.40 413.82-0.28Q412.92-0.96 412.68-2.56L412.68-2.56Q411.76-1.16 409.98-0.38Q408.20 0.40 406.24 0.40L406.24 0.40Q403.28 0.40 401.36-0.98Q399.44-2.36 399.44-4.96L399.44-4.96Q399.44-7.24 401.44-8.90Q403.44-10.56 407.24-11.20L407.24-11.20L412.56-12.08L412.56-13.20Q412.56-15.20 411.32-16.40Q410.08-17.60 407.88-17.60L407.88-17.60Q405.88-17.60 404.42-16.64Q402.96-15.68 402.16-13.80L402.16-13.80L399.80-15.52Q400.60-17.76 402.78-19.08Q404.96-20.40 407.88-20.40L407.88-20.40Q411.44-20.40 413.60-18.68Q415.76-16.96 415.76-13.60L415.76-13.60L415.76-3.76Q415.76-3.04 416.12-2.68Q416.48-2.32 417.28-2.32L417.28-2.32ZM406.40-2.40Q408.92-2.40 410.74-3.60Q412.56-4.80 412.56-6.72L412.56-6.72L412.56-9.48L408.08-8.64Q405.40-8.16 404.08-7.26Q402.76-6.36 402.76-4.96L402.76-4.96Q402.76-3.72 403.72-3.06Q404.68-2.40 406.40-2.40L406.40-2.40Z"/></g>
</svg>
</g><g opacity="1" transform="rotate(0 53.4132 235.1882)">
<svg width="393.445" height="40" x="53.4132" y="235.1882" version="1.1" preserveAspectRatio="none" viewBox="2.4 -26.4 261.64 26.6">
  <g transform="matrix(1 0 0 1 0 0)" class="companyName"><path id="id-D6z1nYkh10" d="M13.52 0L2.40 0L2.40-0.64L5.64-2.24L5.64-24.16L2.40-25.76L2.40-26.40L13.60-26.40Q18.32-26.40 21.18-24.68Q24.04-22.96 24.04-19.24L24.04-19.24Q24.04-17.04 22.54-15.34Q21.04-13.64 18.48-12.66Q15.92-11.68 12.64-11.68L12.64-11.68L9.84-11.68L9.84-2.24L13.52-0.64L13.52 0ZM12.60-24.20L9.84-24.20L9.84-13.80L12.88-13.80Q16.04-13.80 17.84-15.24Q19.64-16.68 19.64-18.92L19.64-18.92Q19.64-21.72 17.82-22.96Q16-24.20 12.60-24.20L12.60-24.20Z M36.60 0L29.16 0L29.16-0.64L31.20-1.72L40.08-22.60L42.16-22.60L50.96-1.80L53.32-0.64L53.32 0L44.04 0L44.04-0.64L46.84-1.80L44.36-7.72L36.12-7.72L33.68-1.76L36.60-0.64L36.60 0ZM40.20-17.68L36.96-9.72L43.52-9.72L40.20-17.68Z M68.40 0L58.92 0L58.92-0.64L61.84-1.96L61.84-20.44L58.92-21.76L58.92-22.40L68.60-22.40Q72.28-22.40 74.42-20.90Q76.56-19.40 76.56-16.76L76.56-16.76Q76.56-14.84 75.38-13.46Q74.20-12.08 72-11.28L72-11.28L78.16-1.88L80.80-0.64L80.80 0L74.52 0L68.20-10.20L65.76-10.20L65.76-2L68.40-0.64L68.40 0ZM67.64-20.44L67.64-20.44L65.76-20.44L65.76-12.16L67.80-12.16Q69.96-12.16 71.20-13.28Q72.44-14.40 72.44-16.32L72.44-16.32Q72.44-18.36 71.18-19.40Q69.92-20.44 67.64-20.44Z M94.52 0L85.12 0L85.12-0.64L87.76-1.96L87.76-20.44L85.12-21.76L85.12-22.40L94.52-22.40L94.52-21.76L91.76-20.44L91.76-1.96L94.52-0.64L94.52 0Z M113.16 0.20L111.44 0.20L102.68-20.64L100.32-21.76L100.32-22.40L109.76-22.40L109.76-21.76L106.96-20.60L113.20-5.48L113.44-5.48L119.60-20.60L116.68-21.76L116.68-22.40L124.08-22.40L124.08-21.76L122.08-20.64L113.16 0.20Z M136 0L128.56 0L128.56-0.64L130.60-1.72L139.48-22.60L141.56-22.60L150.36-1.80L152.72-0.64L152.72 0L143.44 0L143.44-0.64L146.24-1.80L143.76-7.72L135.52-7.72L133.08-1.76L136-0.64L136 0ZM139.60-17.68L136.36-9.72L142.92-9.72L139.60-17.68Z M167.80 0L158.32 0L158.32-0.64L161.24-1.96L161.24-20.44L158.32-21.76L158.32-22.40L168.00-22.40Q171.68-22.40 173.82-20.90Q175.96-19.40 175.96-16.76L175.96-16.76Q175.96-14.84 174.78-13.46Q173.60-12.08 171.40-11.28L171.40-11.28L177.56-1.88L180.20-0.64L180.20 0L173.92 0L167.60-10.20L165.16-10.20L165.16-2L167.80-0.64L167.80 0ZM167.04-20.44L167.04-20.44L165.16-20.44L165.16-12.16L167.20-12.16Q169.36-12.16 170.60-13.28Q171.84-14.40 171.84-16.32L171.84-16.32Q171.84-18.36 170.58-19.40Q169.32-20.44 167.04-20.44Z M199.92 0L188.72 0L188.72-0.64L192.32-1.96L192.32-20.40L186.44-20.40L184.32-15.52L183.68-15.52L183.68-22.40L204.96-22.40L204.96-15.52L204.32-15.52L202.16-20.40L196.28-20.40L196.28-1.96L199.92-0.64L199.92 0Z M217.32 0L209.88 0L209.88-0.64L211.92-1.72L220.80-22.60L222.88-22.60L231.68-1.80L234.04-0.64L234.04 0L224.76 0L224.76-0.64L227.56-1.80L225.08-7.72L216.84-7.72L214.40-1.76L217.32-0.64L217.32 0ZM220.92-17.68L217.68-9.72L224.24-9.72L220.92-17.68Z M248.16 0L239.48 0L239.48-0.64L242.32-1.96L242.32-20.48L239.48-21.76L239.48-22.40L245.44-22.40L258.96-6.36L258.96-20.48L255.44-21.76L255.44-22.40L264.04-22.40L264.04-21.76L261.20-20.48L261.20 0.16L259.36 0.16L244.60-17.24L244.60-2.08L248.16-0.64L248.16 0Z"/></g>
</svg>
</g></svg></svg>