<svg version="1.1" preserveAspectRatio="none" xmlns="http://www.w3.org/2000/svg" width="500" height="500" viewBox="0 0 500 500"><rect width="100%" height="100%" fill="#E1E1E1" fill-opacity="1"/><svg viewBox="406.4147 252.6481 380.2273 211" width="333" height="184.7920967274049" x="83.5px" y="157.604px" xmlns="http://www.w3.org/2000/svg" xmlns:xlink="http://www.w3.org/1999/xlink" preserveAspectRatio="none"><defs></defs><style>.aIptOCySncolors-3 {fill:#03D0C6;fill-opacity:1;}.aIptOCySncolors-4 {fill:#FFC019;fill-opacity:1;}.aIptOCySncolors-5 {fill:#FF5606;fill-opacity:1;}.aIptOCySncolors-6 {fill:#000C9C;fill-opacity:1;}.aIptOCySncolors-7 {fill:#776730;fill-opacity:1;}.companyName {fill:#03D069;fill-opacity:1;}.icon1 {fill:#03D069;fill-opacity:1;}.icon2 {fill:#776730;fill-opacity:1;}.icon3 {fill:#B6B5B5;fill-opacity:1;}.icon3-str {stroke:#B6B5B5;stroke-opacity:1;}.text {fill:#03D069;fill-opacity:1;}</style><g opacity="1" transform="rotate(0 555.8577 252.6481)">
<svg width="81.3413" height="100" x="555.8577" y="252.6481" version="1.1" preserveAspectRatio="none" viewBox="14.086560249328613 5.870923042297363 71.8047866821289 88.2758560180664">
  <g transform="matrix(1 0 0 1 0 0)" class="icon1"><path d="m78 78.109h-2.6914c-0.92969-0.03125-1.8594-0.039063-2.7617-0.019531l0.53906-0.28906 1.3516-0.51953s0.039062-0.019531 0.058594-0.019531c0.16016-0.070313 3-1.3398 4.8398-4.2891 0.30859-0.48047 0.57031-0.98828 0.78906-1.5391 0.28125-0.69141 0.5-1.4414 0.62891-2.2617 3.0586-15.75-2.6484-29.781-4.4688-33.711-0.28906-0.62891-0.58984-1.2695-0.71094-1.5781-1.0117-2.6016-2.9805-4.6602-5.5391-5.7812-1.2812-0.55859-2.6211-0.85937-3.9805-0.89062 1.4492-2.1797 2.3008-4.7891 2.3008-7.6016 0-7.5781-6.1602-13.738-13.738-13.738-7.5781 0-13.738 6.1602-13.738 13.738s6.1602 13.738 13.738 13.738c0.58984 0 1.1719-0.039062 1.7383-0.10938-0.17188 0.35938-0.32031 0.73828-0.44922 1.1211-4.8984 0.46094-9.0391 0.30078-12.359-0.48047-3.7812-0.89062-6.1016-2.5117-7.6992-3.9219 1.6797-2.1406 2.6211-4.8008 2.6211-7.5391 0-0.058594 0-0.12109-0.011719-0.17969 0-0.070312 0.011719-0.14844 0.011719-0.21875 0-2.2812-3.25-3.0391-4.3203-3.2891-2.1211-0.5-4.9102-0.76953-7.8711-0.76953-2.9609 0-5.75 0.26953-7.8711 0.76953-1.0703 0.25-4.3203 1.0117-4.3203 3.2891 0 0.078125 0 0.14844 0.011718 0.21875 0 0.058594-0.011718 0.12109-0.011718 0.17969 0 3.2188 1.2383 6.25 3.5 8.5508 1.8281 1.8711 4.1719 3.0703 6.7109 3.4805-0.019531 1.8281 0.69922 3.6719 2.1602 5 4.1211 3.7812 8.5781 6.1289 14.051 7.4219 3.0898 0.73047 6.5508 1.0898 10.281 1.0898 2.5 0 5.1406-0.16016 7.9492-0.48047 1.5586 3.8789 2.9688 9.1484 1.7188 16.48l-20.898 11.828c-3.6484 1.9492-5.5195 6.0898-4.5586 10.109 0.32812 2.7617 2.1094 5.1719 4.6602 6.2891 0.82812 0.37109 2.5586 1.1289 10.48 1.7305 2.2891 0.17188 4.8711 0.23047 7.7188 0.23047 2.6094 0 5.4414-0.050782 8.4609-0.10156 3.5-0.058594 7.4805-0.12891 11.672-0.12891 4.1914 0 7.8984-3.5508 7.8984-7.8984 0-4.3516-3.5508-7.8984-7.8984-7.8984zm-33.969-58.508c0-5.8398 4.75-10.602 10.602-10.602 5.8516 0 10.602 4.75 10.602 10.602 0 5.8516-4.75 10.602-10.602 10.602-5.8516 0-10.602-4.75-10.602-10.602zm-24.078 2.0117c1.7812-0.32812 4.0195-0.51172 6.3281-0.51172s4.5508 0.17969 6.3281 0.51172c0.71094 0.12891 1.25 0.26953 1.6719 0.39844-0.41016 0.12891-0.96094 0.26953-1.6719 0.39844-1.7812 0.32812-4.0195 0.51172-6.3281 0.51172s-4.5508-0.17969-6.3281-0.51172c-0.71094-0.12891-1.25-0.26953-1.6719-0.39844 0.41016-0.12891 0.96094-0.26953 1.6719-0.39844zm-0.12109 7.1406c-1.0312-1.0391-1.7695-2.2891-2.1914-3.6484 0.30859 0.089843 0.57812 0.14844 0.76953 0.19141 2.1211 0.5 4.9102 0.76953 7.8711 0.76953s5.75-0.26953 7.8711-0.76953c0.19922-0.050781 0.46875-0.10938 0.78125-0.19922-0.35156 1.1484-0.94141 2.2109-1.7305 3.1406-2.4492-0.87109-5.2891-0.25-7.1484 1.7812-0.37891 0.42188-0.69922 0.87891-0.96094 1.3594-1.9883-0.26172-3.8203-1.1719-5.25-2.6211zm21.398 15.051c-4.9219-1.1602-8.9414-3.2812-12.648-6.6719-1.4297-1.3086-1.5312-3.5508-0.21875-4.9805 0.69141-0.76172 1.6484-1.1406 2.6016-1.1406 0.85156 0 1.6992 0.30859 2.3789 0.92188 1.8984 1.7383 4.6914 3.8789 9.4883 5.0117 5.0703 1.1914 11.781 1.0781 19.93-0.33984 1.9102-0.32812 3.7383 0.96094 4.0781 2.8711 0.16016 0.92969-0.050782 1.8594-0.58984 2.6289s-1.3516 1.2812-2.2812 1.4414c-4.9102 0.85156-9.2188 1.2695-13.18 1.2695-3.4883 0-6.7109-0.33984-9.5586-1.0117zm36.77 46.969c-4.2188 0-8.2109 0.070312-11.73 0.12891-6.2617 0.10938-11.672 0.19922-15.898-0.12109-7.3906-0.55859-8.8906-1.2188-9.4492-1.4688-1.5508-0.67969-2.6289-2.1602-2.8086-3.8516 0-0.070313-0.019531-0.14063-0.039062-0.21094-0.66016-2.6484 0.55859-5.3984 2.9805-6.6797l0.039062-0.019531 21.559-12.199c0.39844-0.23047 0.67969-0.62109 0.76953-1.0703 1.5391-8.0195 0.19141-13.871-1.4688-18.211 0.83984-0.12109 1.6914-0.26172 2.5586-0.41016 1.7617-0.30078 3.2891-1.2695 4.3086-2.7305 1.0312-1.4609 1.4219-3.2305 1.1211-4.9805-0.62891-3.6211-4.0898-6.0586-7.7109-5.4297-0.91016 0.16016-1.8008 0.30078-2.6719 0.42188 0.82031-1.3789 2.0898-2.4688 3.6289-3.0703 1.8203-0.71094 3.8086-0.67188 5.6016 0.12109 1.7891 0.78906 3.1602 2.2188 3.8711 4.0391 0.14844 0.39844 0.44922 1.0312 0.78906 1.7617 1.7188 3.7109 7.1289 16.969 4.2305 31.801-0.10938 0.55078-0.23047 1.0312-0.39063 1.4805-0.14844 0.39844-0.33984 0.78906-0.57031 1.1602-0.76172 1.1797-2.1016 2.1797-4.7109 3.5898l-0.23047 0.12109-12.02 4.6719c-0.76953 0.30078-1.1797 1.1406-0.92969 1.9297 0.21094 0.67188 0.82812 1.1094 1.5 1.1094 0.12109 0 0.23047-0.011719 0.35156-0.039062 0.058593-0.011719 5.4688-1.2305 11.719-1.3711 1.8086 0.011718 3.6797 0.019531 5.6016 0.019531 2.6211 0 4.7617 2.1289 4.7617 4.7617 0 2.6289-2.1289 4.7617-4.7617 4.7617z"></path></g>
</svg>
</g><g opacity="1" transform="rotate(0 506.7941 444.6481)">
<svg width="179.4686" height="19" x="506.7941" y="444.6481" version="1.1" preserveAspectRatio="none" viewBox="4.2 -29.68 356 37.68">
  <g transform="matrix(1 0 0 1 0 0)" class="text"><path id="id-6izo4zJp16" d="M15.12-28Q20.56-28 23.68-25.40Q26.80-22.80 26.80-18.24L26.80-18.24Q26.80-13.68 23.68-11.08Q20.56-8.48 15.12-8.48L15.12-8.48L8.20-8.48L8.20 0L4.20 0L4.20-28L15.12-28ZM15-11.96Q18.80-11.96 20.80-13.58Q22.80-15.20 22.80-18.24L22.80-18.24Q22.80-21.28 20.80-22.90Q18.80-24.52 15-24.52L15-24.52L8.20-24.52L8.20-11.96L15-11.96Z M36.64-17.64Q37.64-19.48 39.60-20.44Q41.56-21.40 44.36-21.40L44.36-21.40L44.36-17.68Q44.04-17.72 43.48-17.72L43.48-17.72Q40.36-17.72 38.58-15.86Q36.80-14 36.80-10.56L36.80-10.56L36.80 0L32.96 0L32.96-21.20L36.64-21.20L36.64-17.64Z M57.96-21.40Q62.36-21.40 64.70-19.24Q67.04-17.08 67.04-12.80L67.04-12.80L67.04 0L63.40 0L63.40-2.80Q62.44-1.32 60.66-0.54Q58.88 0.24 56.44 0.24L56.44 0.24Q52.88 0.24 50.74-1.48Q48.60-3.20 48.60-6L48.60-6Q48.60-8.80 50.64-10.50Q52.68-12.20 57.12-12.20L57.12-12.20L63.20-12.20L63.20-12.96Q63.20-15.44 61.76-16.76Q60.32-18.08 57.52-18.08L57.52-18.08Q55.64-18.08 53.84-17.46Q52.04-16.84 50.80-15.80L50.80-15.80L49.20-18.68Q50.84-20 53.12-20.70Q55.40-21.40 57.96-21.40L57.96-21.40ZM57.08-2.72Q59.28-2.72 60.88-3.70Q62.48-4.68 63.20-6.48L63.20-6.48L63.20-9.44L57.28-9.44Q52.40-9.44 52.40-6.16L52.40-6.16Q52.40-4.56 53.64-3.64Q54.88-2.72 57.08-2.72L57.08-2.72Z M89.96-21.20L93.72-21.20L83.44 2.12Q82.08 5.36 80.26 6.68Q78.44 8 75.88 8L75.88 8Q74.32 8 72.86 7.50Q71.40 7 70.44 6.04L70.44 6.04L72.08 3.16Q73.72 4.72 75.88 4.72L75.88 4.72Q77.28 4.72 78.22 3.98Q79.16 3.24 79.92 1.44L79.92 1.44L80.60-0.04L71.24-21.20L75.24-21.20L82.64-4.24L89.96-21.20Z M105.56-21.40Q109.96-21.40 112.30-19.24Q114.64-17.08 114.64-12.80L114.64-12.80L114.64 0L111 0L111-2.80Q110.04-1.32 108.26-0.54Q106.48 0.24 104.04 0.24L104.04 0.24Q100.48 0.24 98.34-1.48Q96.20-3.20 96.20-6L96.20-6Q96.20-8.80 98.24-10.50Q100.28-12.20 104.72-12.20L104.72-12.20L110.80-12.20L110.80-12.96Q110.80-15.44 109.36-16.76Q107.92-18.08 105.12-18.08L105.12-18.08Q103.24-18.08 101.44-17.46Q99.64-16.84 98.40-15.80L98.40-15.80L96.80-18.68Q98.44-20 100.72-20.70Q103-21.40 105.56-21.40L105.56-21.40ZM104.68-2.72Q106.88-2.72 108.48-3.70Q110.08-4.68 110.80-6.48L110.80-6.48L110.80-9.44L104.88-9.44Q100-9.44 100-6.16L100-6.16Q100-4.56 101.24-3.64Q102.48-2.72 104.68-2.72L104.68-2.72Z M129.04 0.24Q126.44 0.24 124.04-0.46Q121.64-1.16 120.28-2.24L120.28-2.24L121.88-5.28Q123.28-4.28 125.28-3.68Q127.28-3.08 129.32-3.08L129.32-3.08Q134.36-3.08 134.36-5.96L134.36-5.96Q134.36-6.92 133.68-7.48Q133-8.04 131.98-8.30Q130.96-8.56 129.08-8.88L129.08-8.88Q126.52-9.28 124.90-9.80Q123.28-10.32 122.12-11.56Q120.96-12.80 120.96-15.04L120.96-15.04Q120.96-17.92 123.36-19.66Q125.76-21.40 129.80-21.40L129.80-21.40Q131.92-21.40 134.04-20.88Q136.16-20.36 137.52-19.48L137.52-19.48L135.88-16.44Q133.28-18.12 129.76-18.12L129.76-18.12Q127.32-18.12 126.04-17.32Q124.76-16.52 124.76-15.20L124.76-15.20Q124.76-14.16 125.48-13.56Q126.20-12.96 127.26-12.68Q128.32-12.40 130.24-12.04L130.24-12.04Q132.80-11.60 134.38-11.10Q135.96-10.60 137.08-9.40Q138.20-8.20 138.20-6.04L138.20-6.04Q138.20-3.16 135.74-1.46Q133.28 0.24 129.04 0.24L129.04 0.24Z M175.56-14.52Q178.00-13.84 179.40-12.06Q180.80-10.28 180.80-7.56L180.80-7.56Q180.80-3.92 178.06-1.96Q175.32 0 170.08 0L170.08 0L156.72 0L156.72-28L169.28-28Q174.08-28 176.70-26.08Q179.32-24.16 179.32-20.76L179.32-20.76Q179.32-18.56 178.30-16.96Q177.28-15.36 175.56-14.52L175.56-14.52ZM168.92-24.76L160.72-24.76L160.72-15.80L168.92-15.80Q172.00-15.80 173.66-16.94Q175.32-18.08 175.32-20.28L175.32-20.28Q175.32-22.48 173.66-23.62Q172.00-24.76 168.92-24.76L168.92-24.76ZM169.92-3.24Q173.32-3.24 175.04-4.36Q176.76-5.48 176.76-7.88L176.76-7.88Q176.76-12.56 169.92-12.56L169.92-12.56L160.72-12.56L160.72-3.24L169.92-3.24Z M195.36-21.40Q199.76-21.40 202.10-19.24Q204.44-17.08 204.44-12.80L204.44-12.80L204.44 0L200.80 0L200.80-2.80Q199.84-1.32 198.06-0.54Q196.28 0.24 193.84 0.24L193.84 0.24Q190.28 0.24 188.14-1.48Q186.00-3.20 186.00-6L186.00-6Q186.00-8.80 188.04-10.50Q190.08-12.20 194.52-12.20L194.52-12.20L200.60-12.20L200.60-12.96Q200.60-15.44 199.16-16.76Q197.72-18.08 194.92-18.08L194.92-18.08Q193.04-18.08 191.24-17.46Q189.44-16.84 188.20-15.80L188.20-15.80L186.60-18.68Q188.24-20 190.52-20.70Q192.80-21.40 195.36-21.40L195.36-21.40ZM194.48-2.72Q196.68-2.72 198.28-3.70Q199.88-4.68 200.60-6.48L200.60-6.48L200.60-9.44L194.68-9.44Q189.80-9.44 189.80-6.16L189.80-6.16Q189.80-4.56 191.04-3.64Q192.28-2.72 194.48-2.72L194.48-2.72Z M229.04-29.68L232.88-29.68L232.88 0L229.20 0L229.20-3.36Q227.92-1.60 225.96-0.68Q224.00 0.24 221.64 0.24L221.64 0.24Q218.56 0.24 216.12-1.12Q213.68-2.48 212.30-4.94Q210.92-7.40 210.92-10.60L210.92-10.60Q210.92-13.80 212.30-16.24Q213.68-18.68 216.12-20.04Q218.56-21.40 221.64-21.40L221.64-21.40Q223.92-21.40 225.84-20.54Q227.76-19.68 229.04-18L229.04-18L229.04-29.68ZM221.96-3.12Q223.96-3.12 225.60-4.06Q227.24-5 228.16-6.70Q229.08-8.40 229.08-10.60L229.08-10.60Q229.08-12.80 228.16-14.50Q227.24-16.20 225.60-17.12Q223.96-18.04 221.96-18.04L221.96-18.04Q219.92-18.04 218.30-17.12Q216.68-16.20 215.74-14.50Q214.80-12.80 214.80-10.60L214.80-10.60Q214.80-8.40 215.74-6.70Q216.68-5 218.30-4.06Q219.92-3.12 221.96-3.12L221.96-3.12Z M241.36 0L241.36-29.68L245.20-29.68L245.20 0L241.36 0Z M261.44-21.40Q265.84-21.40 268.18-19.24Q270.52-17.08 270.52-12.80L270.52-12.80L270.52 0L266.88 0L266.88-2.80Q265.92-1.32 264.14-0.54Q262.36 0.24 259.92 0.24L259.92 0.24Q256.36 0.24 254.22-1.48Q252.08-3.20 252.08-6L252.08-6Q252.08-8.80 254.12-10.50Q256.16-12.20 260.60-12.20L260.60-12.20L266.68-12.20L266.68-12.96Q266.68-15.44 265.24-16.76Q263.80-18.08 261.00-18.08L261.00-18.08Q259.12-18.08 257.32-17.46Q255.52-16.84 254.28-15.80L254.28-15.80L252.68-18.68Q254.32-20 256.60-20.70Q258.88-21.40 261.44-21.40L261.44-21.40ZM260.56-2.72Q262.76-2.72 264.36-3.70Q265.96-4.68 266.68-6.48L266.68-6.48L266.68-9.44L260.76-9.44Q255.88-9.44 255.88-6.16L255.88-6.16Q255.88-4.56 257.12-3.64Q258.36-2.72 260.56-2.72L260.56-2.72Z M293.44-21.20L297.20-21.20L287.92 0L284.00 0L274.72-21.20L278.72-21.20L286.00-4.20L293.44-21.20Z M334.36 0L323.64-12.44L318.52-7.24L318.52 0L314.52 0L314.52-28L318.52-28L318.52-12.36L333.72-28L338.28-28L326.32-15.40L339.04 0L334.36 0Z M351.12-21.40Q355.52-21.40 357.86-19.24Q360.20-17.08 360.20-12.80L360.20-12.80L360.20 0L356.56 0L356.56-2.80Q355.60-1.32 353.82-0.54Q352.04 0.24 349.60 0.24L349.60 0.24Q346.04 0.24 343.90-1.48Q341.76-3.20 341.76-6L341.76-6Q341.76-8.80 343.80-10.50Q345.84-12.20 350.28-12.20L350.28-12.20L356.36-12.20L356.36-12.96Q356.36-15.44 354.92-16.76Q353.48-18.08 350.68-18.08L350.68-18.08Q348.80-18.08 347.00-17.46Q345.20-16.84 343.96-15.80L343.96-15.80L342.36-18.68Q344.00-20 346.28-20.70Q348.56-21.40 351.12-21.40L351.12-21.40ZM350.24-2.72Q352.44-2.72 354.04-3.70Q355.64-4.68 356.36-6.48L356.36-6.48L356.36-9.44L350.44-9.44Q345.56-9.44 345.56-6.16L345.56-6.16Q345.56-4.56 346.80-3.64Q348.04-2.72 350.24-2.72L350.24-2.72Z"/></g>
</svg>
</g><g opacity="1" transform="rotate(0 406.4147 382.6481)">
<svg width="380.2273" height="38" x="406.4147" y="382.6481" version="1.1" preserveAspectRatio="none" viewBox="2.28 -28 280.04 28">
  <g transform="matrix(1 0 0 1 0 0)" class="companyName"><path id="id-D6z1nYkh10" d="M15.76-28Q19.64-28 22.52-26.72Q25.40-25.44 26.96-23.04Q28.52-20.64 28.52-17.44L28.52-17.44Q28.52-14.24 26.96-11.84Q25.40-9.44 22.52-8.16Q19.64-6.88 15.76-6.88L15.76-6.88L11.72-6.88L11.72 0L2.28 0L2.28-28L15.76-28ZM15.16-14.16Q17.08-14.16 18.04-15.02Q19-15.88 19-17.44L19-17.44Q19-19 18.04-19.86Q17.08-20.72 15.16-20.72L15.16-20.72L11.72-20.72L11.72-14.16L15.16-14.16Z M51.16 0L49.28-4.88L38.64-4.88L36.76 0L27.16 0L39.40-28L48.68-28L60.92 0L51.16 0ZM41.24-11.68L46.68-11.68L43.96-18.72L41.24-11.68Z M79.20 0L74.44-7.04L71.88-7.04L71.88 0L62.44 0L62.44-28L75.92-28Q79.80-28 82.68-26.72Q85.56-25.44 87.12-23.04Q88.68-20.64 88.68-17.44L88.68-17.44Q88.68-14.44 87.32-12.20Q85.96-9.96 83.40-8.64L83.40-8.64L89.28 0L79.20 0ZM79.16-17.44Q79.16-19 78.20-19.86Q77.24-20.72 75.32-20.72L75.32-20.72L71.88-20.72L71.88-14.16L75.32-14.16Q77.24-14.16 78.20-15.02Q79.16-15.88 79.16-17.44L79.16-17.44Z M92.24 0L92.24-28L101.68-28L101.68 0L92.24 0Z M126.88-28L136.16-28L124.32 0L115.04 0L103.20-28L113.36-28L120.04-11.64L126.88-28Z M157.04 0L155.16-4.88L144.52-4.88L142.64 0L133.04 0L145.28-28L154.56-28L166.80 0L157.04 0ZM147.12-11.68L152.56-11.68L149.84-18.72L147.12-11.68Z M185.08 0L180.32-7.04L177.76-7.04L177.76 0L168.32 0L168.32-28L181.80-28Q185.68-28 188.56-26.72Q191.44-25.44 193.00-23.04Q194.56-20.64 194.56-17.44L194.56-17.44Q194.56-14.44 193.20-12.20Q191.84-9.96 189.28-8.64L189.28-8.64L195.16 0L185.08 0ZM185.04-17.44Q185.04-19 184.08-19.86Q183.12-20.72 181.20-20.72L181.20-20.72L177.76-20.72L177.76-14.16L181.20-14.16Q183.12-14.16 184.08-15.02Q185.04-15.88 185.04-17.44L185.04-17.44Z M203.80 0L203.80-20.68L195.60-20.68L195.60-28L221.44-28L221.44-20.68L213.24-20.68L213.24 0L203.80 0Z M243.44 0L241.56-4.88L230.92-4.88L229.04 0L219.44 0L231.68-28L240.96-28L253.20 0L243.44 0ZM233.52-11.68L238.96-11.68L236.24-18.72L233.52-11.68Z M273.12-28L282.32-28L282.32 0L274.56 0L263.92-12.72L263.92 0L254.72 0L254.72-28L262.48-28L273.12-15.28L273.12-28Z"/></g>
</svg>
</g></svg></svg>